# This file uses centimeters as units for non-parametric coordinates.

g default
v 9.592284 4.285850 3.526119
v 9.647070 4.285850 3.601092
v 9.647070 4.340636 3.526119
v 9.592284 3.990114 3.526119
v 9.647070 3.990114 3.601092
v 9.647070 4.067593 3.601092
v 9.592284 4.067593 3.526119
v 11.243742 4.340636 3.526119
v 11.243742 4.285850 3.601092
v 11.298528 4.285850 3.526119
v 11.298528 4.067593 3.526119
v 11.243742 4.067593 3.601092
v 11.243742 3.990114 3.601092
v 11.298528 3.990114 3.526119
v 11.298528 4.285850 -10.290932
v 11.243742 4.285850 -10.365904
v 11.243742 4.340636 -10.290932
v 11.243742 4.067593 -10.365904
v 11.298528 4.067593 -10.290932
v 11.298528 3.990114 -10.290932
v 11.243742 3.990114 -10.365904
v 9.647070 4.340636 -10.290932
v 9.647070 4.285850 -10.365904
v 9.592284 4.285850 -10.290932
v 9.592284 4.067593 -10.290932
v 9.647070 4.067593 -10.365904
v 9.647070 3.990114 -10.365904
v 9.592284 3.990114 -10.290932
v 9.592284 2.039181 3.526119
v 9.647070 1.984395 3.526119
v 9.647070 2.039181 3.601092
v 11.243742 2.039181 3.601092
v 11.243742 1.984395 3.526119
v 11.298528 2.039181 3.526119
v 11.298528 4.285850 1.244009
v 11.243742 4.340636 1.244009
v 11.243742 4.340636 1.350036
v 11.298528 4.285850 1.350036
v 11.298528 2.039181 1.350036
v 11.243742 1.984395 1.350036
v 11.243742 1.984395 1.244009
v 11.298528 2.039181 1.244009
v 11.298528 2.039181 -10.290932
v 11.243742 1.984395 -10.290932
v 11.243742 2.039181 -10.365904
v 9.647070 2.039181 -10.365904
v 9.647070 1.984395 -10.290932
v 9.592284 2.039181 -10.290932
v 9.592284 4.285850 1.350036
v 9.647070 4.340636 1.350036
v 9.647070 4.340636 1.244009
v 9.592284 4.285850 1.244009
v 9.592284 2.039181 1.244009
v 9.647070 1.984395 1.244009
v 9.647070 1.984395 1.350036
v 9.592284 2.039181 1.350036
v 11.298528 4.067593 1.244009
v 11.298528 4.067593 1.350036
v 11.298528 3.990114 1.350036
v 11.298528 3.990114 1.244009
v 9.592284 4.067593 1.350036
v 9.592284 4.067593 1.244009
v 9.592284 3.990114 1.244009
v 9.592284 3.990114 1.350036
vt 0.373658 0.000000
vt 0.334708 -0.000000
vt 0.380813 -0.000000
vt 0.380813 0.008027
vt 0.412191 0.998658
vt 0.403970 0.998658
vt 0.412191 0.000000
vt 0.619187 -0.000000
vt 0.412191 0.008027
vt 0.373658 0.250000
vt 0.334708 0.250000
vt 0.380813 0.241973
vt 0.403970 0.241973
vt 0.412191 0.241973
vt 0.375000 0.498658
vt 0.380813 0.498658
vt 0.375000 0.508027
vt 0.380813 0.508027
vt 0.375000 0.741973
vt 0.403970 0.498658
vt 0.412191 0.498658
vt 0.619187 0.498658
vt 0.375000 0.751300
vt 0.375000 0.957810
vt 0.380813 0.741973
vt 0.403970 0.741973
vt 0.412191 0.741973
vt 0.619187 0.741973
vt 0.626342 -0.000000
vt 0.665292 0.000000
vt 0.626342 0.008027
vt 0.619187 0.241973
vt 0.626342 0.241973
vt 0.665292 0.250000
vt 0.380813 0.290292
vt 0.403970 0.290292
vt 0.403969 0.292161
vt 0.332810 0.241973
vt 0.332810 0.008027
vt 0.334708 0.008027
vt 0.412191 0.292190
vt 0.412191 0.290292
vt 0.665292 0.241973
vt 0.665292 0.008027
vt 0.667190 0.241973
vt 0.873658 0.250000
vt 0.873658 0.241973
vt 0.875000 0.008027
vt 0.873658 0.008027
vt 0.667190 0.008027
vt 0.667190 0.000000
vt 0.380813 0.957810
vt 0.403970 0.957810
vt 0.403970 0.959707
vt 0.619187 0.959707
vt 0.412191 0.959707
vt 0.412191 0.957810
vt 0.403970 0.008027
vt 0.380810 0.292161
vt 0.403970 0.508027
vt 0.380815 0.751300
vt 0.403974 0.751300
vt 0.126342 0.008027
vt 0.126342 0.241973
vt 0.373658 0.008027
vt 0.373658 0.241973
vt 0.334708 0.241973
vt 0.380813 0.251342
vt 0.403970 0.251342
vt 0.380813 0.959707
vt 0.380813 0.998658
vt 0.619187 0.008027
vt 0.412191 0.251342
vt 0.619187 0.251342
vt 0.619187 0.290292
vt 0.619187 0.292190
vt 0.412191 0.508027
vt 0.619187 0.508027
vt 0.412191 0.751342
vt 0.619187 0.751342
vt 0.619187 0.957810
vt 0.619187 0.998658
vt 0.408080 0.000000
vt 0.403970 -0.000000
vt 0.626342 0.250000
vt 0.375000 0.292161
vt 0.375000 0.291241
vt 0.666241 0.250000
vt 0.667190 0.250000
vt 0.875000 0.241973
vt 0.873658 0.000000
vt 0.375000 0.958758
vt 0.666241 0.000000
vn -0.707107 0.707107 0.000000
vn -0.707107 0.707107 0.000000
vn -0.707107 0.707107 0.000000
vn -0.707107 0.707107 0.000000
vn -0.807402 0.000000 0.590001
vn -0.807402 0.000000 0.590001
vn -0.807402 0.000000 0.590001
vn -0.807402 0.000000 0.590001
vn 0.000000 0.807402 0.590002
vn 0.000000 0.807402 0.590002
vn 0.000000 0.807402 0.590002
vn 0.000000 0.807402 0.590002
vn -1.000000 0.000000 0.000000
vn -1.000000 0.000000 0.000000
vn -1.000000 0.000000 0.000000
vn -1.000000 0.000000 0.000000
vn -0.807403 0.000000 0.590001
vn -0.807403 0.000000 0.590001
vn -0.807403 0.000000 0.590001
vn -0.807403 0.000000 0.590001
vn 0.000000 0.000000 1.000000
vn 0.000000 0.000000 1.000000
vn 0.000000 0.000000 1.000000
vn 0.000000 0.000000 1.000000
vn 0.707107 0.707107 0.000000
vn 0.707107 0.707107 0.000000
vn 0.707107 0.707107 0.000000
vn 0.707107 0.707107 0.000000
vn 0.807402 0.000000 0.590001
vn 0.807402 0.000000 0.590001
vn 0.807402 0.000000 0.590001
vn 0.807402 0.000000 0.590001
vn 1.000000 0.000000 0.000000
vn 1.000000 0.000000 0.000000
vn 1.000000 0.000000 0.000000
vn 1.000000 0.000000 0.000000
vn 0.807403 0.000000 0.590001
vn 0.807403 0.000000 0.590001
vn 0.807403 0.000000 0.590001
vn 0.807403 0.000000 0.590001
vn 0.707109 0.707105 0.000000
vn 0.707109 0.707105 0.000000
vn 0.707109 0.707105 0.000000
vn 0.707109 0.707105 0.000000
vn 0.807399 0.000000 -0.590006
vn 0.807399 0.000000 -0.590006
vn 0.807400 0.000000 -0.590005
vn 0.807400 0.000000 -0.590005
vn 0.000000 0.807402 -0.590002
vn 0.000000 0.807402 -0.590002
vn 0.000000 0.807402 -0.590002
vn 0.000000 0.807402 -0.590002
vn 0.000000 0.000000 -1.000000
vn 0.000000 0.000000 -1.000000
vn 0.000000 0.000000 -1.000000
vn 0.000000 0.000000 -1.000000
vn 1.000000 0.000000 0.000000
vn 1.000000 0.000000 0.000000
vn 1.000000 0.000000 0.000000
vn 1.000000 0.000000 0.000000
vn 0.807401 0.000000 -0.590003
vn 0.807401 0.000000 -0.590003
vn 0.807401 0.000000 -0.590003
vn 0.807401 0.000000 -0.590003
vn -0.707109 0.707105 0.000000
vn -0.707109 0.707105 0.000000
vn -0.707109 0.707105 0.000000
vn -0.707109 0.707105 0.000000
vn -0.807399 0.000000 -0.590006
vn -0.807399 0.000000 -0.590006
vn -0.807400 0.000000 -0.590005
vn -0.807400 0.000000 -0.590005
vn -1.000000 0.000000 0.000000
vn -1.000000 0.000000 0.000000
vn -1.000000 0.000000 0.000000
vn -1.000000 0.000000 0.000000
vn -0.807401 0.000000 -0.590003
vn -0.807401 0.000000 -0.590003
vn -0.807401 0.000000 -0.590003
vn -0.807401 0.000000 -0.590003
vn -0.707108 -0.707106 0.000000
vn -0.707108 -0.707106 0.000000
vn -0.707108 -0.707106 0.000000
vn -0.707108 -0.707106 0.000000
vn 0.000000 -0.807401 0.590003
vn 0.000000 -0.807401 0.590003
vn 0.000000 -0.807401 0.590003
vn 0.000000 -0.807401 0.590003
vn 0.707108 -0.707106 0.000000
vn 0.707108 -0.707106 0.000000
vn 0.707108 -0.707106 0.000000
vn 0.707108 -0.707106 0.000000
vn 1.000000 0.000000 0.000000
vn 1.000000 0.000000 0.000000
vn 0.000000 1.000000 0.000000
vn 0.000000 1.000000 0.000000
vn 0.000000 1.000000 0.000000
vn 0.000000 1.000000 0.000000
vn 1.000000 0.000000 0.000000
vn 1.000000 0.000000 0.000000
vn 0.000000 -1.000000 0.000000
vn 0.000000 -1.000000 0.000000
vn 0.000000 -1.000000 0.000000
vn 0.000000 -1.000000 0.000000
vn 0.707110 -0.707104 0.000000
vn 0.707110 -0.707104 0.000000
vn 0.707110 -0.707104 0.000000
vn 0.707110 -0.707104 0.000000
vn 0.000000 -0.807401 -0.590003
vn 0.000000 -0.807401 -0.590003
vn 0.000000 -0.807401 -0.590003
vn 0.000000 -0.807401 -0.590003
vn -0.707110 -0.707104 0.000000
vn -0.707110 -0.707104 0.000000
vn -0.707110 -0.707104 0.000000
vn -0.707110 -0.707104 0.000000
vn -1.000000 0.000000 0.000000
vn -1.000000 0.000000 0.000000
vn -1.000000 0.000000 0.000000
vn -1.000000 0.000000 0.000000
vn 0.000000 0.000000 1.000000
vn 0.000000 0.000000 1.000000
vn 1.000000 0.000000 0.000000
vn 0.000000 0.000000 -1.000000
vn 0.000000 0.000000 -1.000000
vn -1.000000 0.000000 0.000000
vn 0.000000 -1.000000 0.000000
vn 0.000000 -1.000000 0.000000
vn 0.000000 1.000000 0.000000
vn 0.000000 1.000000 0.000000
vn 0.000000 1.000000 0.000000
vn 0.000000 1.000000 0.000000
vn 1.000000 0.000000 0.000000
vn 0.000000 -1.000000 0.000000
vn 0.000000 -1.000000 0.000000
vn -1.000000 0.000000 0.000000
vn 0.000000 0.000000 1.000000
vn 0.000000 0.000000 1.000000
vn 1.000000 0.000000 0.000000
vn 1.000000 0.000000 0.000000
vn 0.000000 0.000000 -1.000000
vn 0.000000 0.000000 -1.000000
vn -1.000000 0.000000 0.000000
vn -1.000000 0.000000 0.000000
vn -0.628195 0.628211 0.459045
vn -0.628195 0.628211 0.459045
vn -0.628195 0.628211 0.459045
vn 0.628195 0.628211 0.459045
vn 0.628195 0.628211 0.459045
vn 0.628195 0.628211 0.459045
vn 0.628185 0.628217 -0.459050
vn 0.628185 0.628217 -0.459050
vn 0.628185 0.628217 -0.459050
vn -0.628185 0.628217 -0.459050
vn -0.628185 0.628217 -0.459050
vn -0.628185 0.628217 -0.459050
vn -0.628194 -0.628209 0.459049
vn -0.628193 -0.628209 0.459049
vn -0.628194 -0.628209 0.459049
vn 0.628194 -0.628209 0.459049
vn 0.628193 -0.628209 0.459049
vn 0.628194 -0.628209 0.459049
vn 0.628194 -0.628209 -0.459049
vn 0.628193 -0.628209 -0.459049
vn 0.628194 -0.628209 -0.459049
vn -0.628194 -0.628209 -0.459049
vn -0.628193 -0.628209 -0.459049
vn -0.628194 -0.628209 -0.459049
s 1
g TV_desk group21
f 1/1/1 3/65/2 50/40/3 49/2/4
s 2
f 2/4/5 1/3/6 7/84/7 6/58/8
s off
f 3/65/9 2/4/10 9/12/11 8/66/12
s 3
f 4/5/13 7/6/14 61/54/15 64/56/16
s 2
f 5/9/17 4/7/18 29/8/19 31/72/20
s 4
f 6/58/21 5/9/22 13/14/23 12/13/24
s 5
f 8/66/25 10/10/26 38/11/27 37/67/28
s 6
f 10/68/29 9/12/30 12/13/31 11/69/32
s 7
f 11/69/33 14/73/34 59/42/35 58/36/36
s 6
f 14/73/37 13/14/38 32/32/39 34/74/40
s 5
f 15/16/41 17/15/42 36/86/43 35/59/44
s 8
f 16/18/45 15/16/46 19/20/47 18/60/48
s off
f 17/17/49 16/18/50 23/25/51 22/19/52
s 9
f 18/60/53 21/77/54 27/27/55 26/26/56
s 7
f 20/21/57 19/20/58 57/37/59 60/41/60
s 8
f 21/77/61 20/21/62 43/22/63 45/78/64
s 1
f 22/23/65 24/61/66 52/52/67 51/24/68
s 11
f 24/61/69 23/25/70 26/26/71 25/62/72
s 3
f 25/62/73 28/79/74 63/57/75 62/53/76
s 11
f 28/79/77 27/27/78 46/28/79 48/80/80
s 13
f 30/31/81 29/29/82 56/30/83 55/44/84
s off
f 31/72/85 30/31/86 33/33/87 32/32/88
s 14
f 34/85/89 33/33/90 40/43/91 39/34/92
s 7
f 35/59/93 38/35/94 58/36/36 57/37/59
s 15
f 37/67/95 36/38/96 51/39/97 50/40/98
s 7
f 39/75/99 42/76/100 60/41/60 59/42/35
s 16
f 41/45/101 40/43/102 55/44/103 54/50/104
s 14
f 42/89/105 41/45/106 44/47/107 43/46/108
s off
f 45/90/109 44/47/110 47/49/111 46/48/112
s 13
f 48/91/113 47/49/114 54/50/115 53/51/116
s 3
f 49/70/117 52/52/118 62/53/76 61/54/15
f 53/81/119 56/55/120 64/56/16 63/57/75
s 4
f 2/4/121 6/58/21 12/13/24 9/12/122
s 7
f 35/59/93 57/37/59 19/20/58 15/16/123
s 9
f 16/18/124 18/60/53 26/26/56 23/25/125
s 3
f 24/61/126 25/62/73 62/53/76 52/52/118
s 16
f 54/50/104 47/49/127 44/47/128 41/45/101
s 15
f 22/63/129 51/39/97 36/38/96 17/64/130
f 50/40/98 3/65/131 8/66/132 37/67/95
s 7
f 10/68/133 11/69/33 58/36/36 38/35/94
s 16
f 30/31/134 55/44/103 40/43/102 33/33/135
s 3
f 49/70/117 61/54/15 7/6/14 1/71/136
s 4
f 5/9/22 31/72/137 32/32/138 13/14/23
s 7
f 59/42/35 14/73/34 34/74/139 39/75/99
f 20/21/57 60/41/60 42/76/100 43/22/140
s 9
f 27/27/55 21/77/54 45/78/141 46/28/142
s 3
f 63/57/75 28/79/74 48/80/143 53/81/119
f 4/5/13 64/56/16 56/55/120 29/82/144
s off
f 1/3/145 2/4/146 3/65/147
s 2
f 4/83/18 5/9/17 6/58/8 7/84/7
s off
f 8/66/148 9/12/149 10/68/150
s 6
f 11/69/32 12/13/31 13/14/38 14/73/37
s off
f 15/16/151 16/18/152 17/15/153
s 8
f 18/60/48 19/20/47 20/21/62 21/77/61
s off
f 22/19/154 23/25/155 24/61/156
s 11
f 25/62/72 26/26/71 27/27/78 28/79/77
s off
f 29/29/157 30/31/158 31/72/159
f 32/32/160 33/33/161 34/85/162
s 5
f 35/59/44 36/86/43 37/87/28 38/35/27
s 14
f 39/88/92 40/43/91 41/45/106 42/89/105
s off
f 43/46/163 44/47/164 45/90/165
f 46/48/166 47/49/167 48/91/168
s 1
f 49/70/4 50/92/3 51/24/68 52/52/67
s 13
f 53/51/116 54/50/115 55/44/84 56/93/83
s 7
f 57/37/59 58/36/36 59/42/35 60/41/60
s 3
f 61/54/15 62/53/76 63/57/75 64/56/16
