# This file uses centimeters as units for non-parametric coordinates.

g default
v -0.141477 3.979644 -4.161493
v -0.152601 4.100854 -4.040796
v -0.262175 4.100854 -4.172617
v 2.209452 4.100854 -3.944834
v 2.077631 4.100854 -3.835260
v 2.088754 3.979644 -3.955958
v -0.262175 4.343321 -4.172617
v -0.152601 4.343321 -4.040796
v -0.141477 4.464530 -4.161493
v 2.088754 4.464530 -3.955958
v 2.077631 4.343321 -3.835260
v 2.209452 4.343321 -3.944834
v -0.135010 4.343321 -5.552465
v -0.014312 4.464530 -5.541340
v -0.003188 4.343321 -5.662038
v 2.227043 4.343321 -5.456502
v 2.215919 4.464530 -5.335805
v 2.336617 4.343321 -5.324681
v -0.135010 4.100854 -5.552465
v -0.003188 4.100854 -5.662038
v -0.014312 3.979644 -5.541340
v 2.215919 3.979644 -5.335805
v 2.227043 4.100854 -5.456502
v 2.336617 4.100854 -5.324681
v -0.341741 3.872566 -4.032018
v -0.343233 3.888824 -4.015830
v -0.357930 3.888824 -4.033510
v 2.234612 3.888824 -3.794584
v 2.216930 3.888824 -3.779887
v 2.218422 3.872566 -3.796075
v -0.357930 3.974172 -4.033510
v -0.357930 3.951181 -4.033510
v -0.343233 3.951181 -4.015830
v -0.343233 3.974172 -4.015830
v 2.216930 3.974172 -3.779887
v 2.216930 3.951181 -3.779887
v 2.234610 3.951181 -3.794584
v 2.234610 3.974172 -3.794584
v -0.187526 3.962677 -5.705389
v -0.186034 3.946419 -5.721578
v -0.203715 3.946419 -5.706881
v 2.388826 3.946419 -5.467955
v 2.374129 3.946419 -5.485636
v 2.372638 3.962677 -5.469447
v -0.203715 3.888824 -5.706881
v -0.186034 3.888824 -5.721578
v -0.187526 3.872566 -5.705389
v 2.372638 3.872566 -5.469447
v 2.374129 3.888824 -5.485636
v 2.388826 3.888824 -5.467955
v -0.332071 3.978633 -4.140250
v -0.330935 3.962677 -4.155866
v -0.346940 3.946959 -4.152780
v -0.349095 3.950310 -4.129399
v -0.349402 3.973790 -4.126064
v 2.243139 3.973790 -3.887137
v 2.243447 3.950310 -3.890473
v 2.245646 3.946268 -3.914340
v 2.230157 3.962677 -3.920141
v 2.228693 3.978633 -3.904252
v -0.332826 3.872566 -4.128775
v -0.349015 3.888824 -4.130267
v -0.346905 3.888824 -4.153161
v -0.330716 3.872566 -4.151669
v 2.243526 3.888824 -3.891340
v 2.227338 3.872566 -3.892832
v 2.229447 3.872566 -3.915726
v 2.245637 3.888824 -3.914234
v -0.357932 4.493253 -4.033510
v -0.343235 4.493253 -4.015830
v -0.343235 4.516245 -4.015830
v -0.357932 4.516245 -4.033510
v 2.216928 4.493253 -3.779887
v 2.234610 4.493253 -3.794584
v 2.234610 4.516245 -3.794584
v 2.216928 4.516245 -3.779887
v -0.343235 4.553528 -4.015830
v -0.341743 4.569786 -4.032018
v -0.357932 4.553528 -4.033510
v 2.234610 4.553528 -3.794584
v 2.218421 4.569786 -3.796075
v 2.216928 4.553528 -3.779887
v 2.245602 4.520466 -3.913854
v 2.243447 4.517116 -3.890473
v 2.243076 4.493147 -3.886448
v 2.228693 4.488793 -3.904252
v 2.230157 4.504749 -3.920141
v 2.229447 4.569786 -3.915726
v 2.227338 4.569786 -3.892832
v 2.243526 4.553528 -3.891340
v 2.245637 4.553528 -3.914234
v -0.330607 4.504749 -4.156140
v -0.332372 4.489095 -4.140277
v -0.349402 4.493636 -4.126064
v -0.349095 4.517116 -4.129399
v -0.346940 4.520466 -4.152780
v -0.346905 4.553528 -4.153161
v -0.349015 4.553528 -4.130267
v -0.332826 4.569786 -4.128775
v -0.330716 4.569786 -4.151669
v -0.193671 4.521007 -5.638719
v -0.195163 4.504749 -5.622529
v -0.211352 4.521007 -5.624020
v 2.381190 4.521007 -5.385093
v 2.365001 4.504749 -5.386587
v 2.366493 4.521007 -5.402776
v -0.193671 4.553528 -5.638719
v -0.211352 4.553528 -5.624020
v -0.195163 4.569786 -5.622529
v 2.366493 4.553528 -5.402776
v 2.365001 4.569786 -5.386587
v 2.381190 4.553528 -5.385093
vt 0.387208 0.981388
vt 0.375000 0.981388
vt 0.375000 0.768612
vt 0.387208 0.768612
vt 0.387208 0.062494
vt 0.387208 -0.000000
vt 0.612792 0.000000
vt 0.612792 0.062494
vt 0.356388 0.062494
vt 0.387208 0.187506
vt 0.356388 0.187506
vt 0.625000 0.981388
vt 0.612792 0.981388
vt 0.612792 0.768612
vt 0.625000 0.768612
vt 0.643612 0.062494
vt 0.643612 0.187506
vt 0.612792 0.187506
vt 0.375000 0.268612
vt 0.387208 0.268612
vt 0.387208 0.481388
vt 0.375000 0.481388
vt 0.612792 0.268612
vt 0.625000 0.268612
vt 0.625000 0.481388
vt 0.612792 0.481388
vt 0.375000 0.562494
vt 0.387208 0.562494
vt 0.387208 0.687506
vt 0.375000 0.687506
vt 0.612792 0.562494
vt 0.625000 0.562494
vt 0.625000 0.687506
vt 0.612792 0.687506
vt 0.856388 0.062494
vt 0.856388 0.187506
vt 0.143612 0.062494
vt 0.143612 0.187506
vt 0.376561 0.997627
vt 0.375000 0.997627
vt 0.375000 0.983446
vt 0.376561 0.983446
vt 0.376561 0.045104
vt 0.376561 0.000000
vt 0.623439 -0.000000
vt 0.623439 0.045104
vt 0.372627 0.045104
vt 0.376561 0.218106
vt 0.372627 0.218106
vt 0.625000 0.997627
vt 0.623439 0.997627
vt 0.623439 0.983446
vt 0.625000 0.983446
vt 0.627373 0.045104
vt 0.627373 0.218106
vt 0.623439 0.218106
vt 0.375000 0.252373
vt 0.376561 0.250000
vt 0.376561 0.250000
vt 0.375000 0.252373
vt 0.372896 0.250000
vt 0.360812 0.250000
vt 0.358574 0.215690
vt 0.623439 0.250000
vt 0.625000 0.252373
vt 0.625000 0.252373
vt 0.623439 0.250000
vt 0.629167 0.250000
vt 0.641427 0.215690
vt 0.641189 0.250000
vt 0.127373 0.250000
vt 0.127373 0.204896
vt 0.355147 0.206395
vt 0.354484 0.250000
vt 0.376561 0.545104
vt 0.376561 0.497627
vt 0.623439 0.497627
vt 0.623439 0.545104
vt 0.375000 0.545104
vt 0.376561 0.704896
vt 0.375000 0.704896
vt 0.872627 0.204896
vt 0.872627 0.250000
vt 0.645552 0.250000
vt 0.644921 0.204481
vt 0.625000 0.545104
vt 0.625000 0.704896
vt 0.623439 0.704896
vt 0.127373 0.045104
vt 0.127373 -0.000000
vt 0.355091 0.000000
vt 0.355091 0.045104
vt 0.376561 0.752373
vt 0.623439 0.752373
vt 0.625000 0.752373
vt 0.625000 0.980091
vt 0.623439 0.980091
vt 0.376532 0.268231
vt 0.375000 0.265938
vt 0.375000 0.265938
vt 0.376503 0.268231
vt 0.376503 0.270516
vt 0.623468 0.268231
vt 0.623468 0.270560
vt 0.358446 0.045104
vt 0.625000 0.265938
vt 0.623468 0.268231
vt 0.625000 0.265837
vt 0.641554 0.045104
vt 0.644910 0.045099
vt 0.376561 0.980091
vt 0.375000 0.252373
vt 0.375000 0.266426
vt 0.376561 0.250000
vt 0.623439 0.250000
vt 0.376561 0.250000
vt 0.375000 0.252373
vt 0.625000 0.252373
vt 0.625000 0.266427
vt 0.625000 0.252373
vt 0.623439 0.250000
vt 0.376561 0.252373
vt 0.623439 0.252373
vt 0.376561 0.266554
vt 0.375000 0.266554
vt 0.625000 0.266554
vt 0.623439 0.266554
vt 0.625000 0.268231
vt 0.623468 0.268231
vt 0.623439 0.268231
vt 0.625000 0.268231
vt 0.625000 0.268231
vt 0.376532 0.268231
vt 0.623439 0.268231
vt 0.625000 0.268231
vt 0.623439 0.268231
vt 0.376561 0.268231
vt 0.375000 0.268231
vt 0.375000 0.268231
vt 0.376561 0.268231
vt 0.375000 0.268231
vt 0.376561 0.268231
vt 0.375000 0.268231
vt 0.376561 0.268231
vt 0.376561 0.268231
vt 0.623439 0.268231
vt 0.623439 0.268231
vt 0.872627 0.045104
vt 0.625000 0.250000
vt 0.356769 0.250000
vt 0.356769 0.250000
vt 0.643231 0.250000
vt 0.643231 0.250000
vt 0.375000 0.981769
vt 0.625000 0.981769
vn -0.704124 -0.707106 -0.064892
vn -0.704124 -0.707106 -0.064892
vn -0.704124 -0.707106 -0.064892
vn -0.704124 -0.707106 -0.064892
vn -0.064891 -0.707105 0.704125
vn -0.064891 -0.707105 0.704125
vn -0.064891 -0.707105 0.704125
vn -0.064891 -0.707105 0.704125
vn -0.769016 0.000000 0.639230
vn -0.769016 0.000000 0.639230
vn -0.769016 0.000000 0.639230
vn -0.769016 0.000000 0.639230
vn 0.704125 -0.707105 0.064891
vn 0.704125 -0.707105 0.064891
vn 0.704125 -0.707105 0.064891
vn 0.704125 -0.707105 0.064891
vn 0.639232 0.000000 0.769014
vn 0.639232 0.000000 0.769014
vn 0.639232 0.000000 0.769014
vn 0.639232 0.000000 0.769014
vn -0.704122 0.707108 -0.064891
vn -0.704122 0.707108 -0.064891
vn -0.704122 0.707108 -0.064891
vn -0.704122 0.707108 -0.064891
vn -0.064891 0.707107 0.704123
vn -0.064891 0.707107 0.704123
vn -0.064891 0.707107 0.704123
vn -0.064891 0.707107 0.704123
vn 0.704122 0.707108 0.064891
vn 0.704122 0.707108 0.064891
vn 0.704122 0.707108 0.064891
vn 0.704122 0.707108 0.064891
vn -0.639227 0.000000 -0.769018
vn -0.639227 0.000000 -0.769018
vn -0.639227 0.000000 -0.769018
vn -0.639227 0.000000 -0.769018
vn 0.064891 0.707108 -0.704121
vn 0.064891 0.707108 -0.704121
vn 0.064891 0.707108 -0.704121
vn 0.064891 0.707108 -0.704121
vn 0.769016 0.000000 -0.639230
vn 0.769016 0.000000 -0.639230
vn 0.769016 0.000000 -0.639230
vn 0.769016 0.000000 -0.639230
vn 0.064891 -0.707105 -0.704125
vn 0.064891 -0.707105 -0.704125
vn 0.064891 -0.707105 -0.704125
vn 0.064891 -0.707105 -0.704125
vn -0.091770 0.000000 0.995780
vn -0.091770 0.000000 0.995780
vn -0.091770 0.000000 0.995780
vn -0.091770 0.000000 0.995780
vn 0.000000 1.000000 -0.000000
vn 0.000000 1.000000 -0.000000
vn 0.000000 1.000000 -0.000000
vn 0.000000 1.000000 -0.000000
vn 0.091770 0.000000 -0.995780
vn 0.091770 0.000000 -0.995780
vn 0.091770 0.000000 -0.995780
vn 0.091770 0.000000 -0.995780
vn 0.000000 -1.000000 0.000000
vn 0.000000 -1.000000 0.000000
vn 0.000000 -1.000000 0.000000
vn 0.000000 -1.000000 0.000000
vn 0.995780 0.000000 0.091770
vn 0.995780 0.000000 0.091770
vn 0.995780 0.000000 0.091770
vn 0.995780 0.000000 0.091770
vn -0.995780 0.000000 -0.091770
vn -0.995780 0.000000 -0.091770
vn -0.995780 0.000000 -0.091770
vn -0.995780 0.000000 -0.091770
vn -0.627902 -0.577345 0.521931
vn -0.627902 -0.577345 0.521931
vn -0.627902 -0.577345 0.521931
vn 0.521930 -0.577350 0.627899
vn 0.521930 -0.577350 0.627899
vn 0.521930 -0.577350 0.627899
vn -0.627900 0.577348 0.521930
vn -0.627900 0.577348 0.521930
vn -0.627900 0.577348 0.521930
vn 0.521930 0.577356 0.627893
vn 0.521930 0.577356 0.627893
vn 0.521930 0.577356 0.627893
vn -0.521925 0.577355 -0.627898
vn -0.521925 0.577355 -0.627898
vn -0.521925 0.577355 -0.627898
vn 0.627899 0.577351 -0.521929
vn 0.627899 0.577351 -0.521929
vn 0.627899 0.577351 -0.521929
vn -0.521927 -0.577351 -0.627900
vn -0.521926 -0.577351 -0.627900
vn -0.521926 -0.577351 -0.627900
vn 0.627902 -0.577344 -0.521933
vn 0.627902 -0.577344 -0.521933
vn 0.627902 -0.577344 -0.521933
vn -0.704121 -0.707110 -0.064877
vn -0.704121 -0.707110 -0.064877
vn -0.704121 -0.707110 -0.064881
vn -0.704121 -0.707110 -0.064881
vn -0.064893 -0.707114 0.704115
vn -0.064893 -0.707114 0.704115
vn -0.064893 -0.707114 0.704115
vn -0.064893 -0.707114 0.704115
vn -0.768994 0.000000 0.639256
vn -0.768994 0.000000 0.639256
vn -0.768994 0.000000 0.639256
vn -0.768994 0.000000 0.639256
vn 0.704124 -0.707107 0.064877
vn 0.704124 -0.707107 0.064877
vn 0.704122 -0.707109 0.064878
vn 0.704122 -0.707109 0.064878
vn 0.639249 0.000010 0.769000
vn 0.639249 0.000010 0.769000
vn 0.639254 0.000008 0.768996
vn 0.639254 0.000008 0.768996
vn -0.768996 -0.000003 0.639254
vn -0.768996 -0.000003 0.639254
vn -0.768996 -0.000003 0.639254
vn -0.768996 -0.000003 0.639254
vn -0.995782 -0.000000 -0.091751
vn -0.995781 -0.000002 -0.091760
vn -0.995781 -0.000002 -0.091760
vn -0.995782 0.000000 -0.091754
vn -0.091770 -0.000000 0.995780
vn -0.091770 0.000000 0.995780
vn -0.091770 0.000000 0.995780
vn -0.091770 -0.000000 0.995780
vn 0.639254 0.000001 0.768996
vn 0.639254 0.000001 0.768996
vn 0.639252 0.000001 0.768997
vn 0.639252 0.000001 0.768997
vn 0.995780 0.000000 0.091770
vn 0.995781 0.000011 0.091764
vn 0.995781 0.000010 0.091766
vn 0.995780 0.000000 0.091770
vn -0.704809 0.706393 -0.065216
vn -0.704809 0.706393 -0.065216
vn -0.704809 0.706393 -0.065216
vn -0.704809 0.706393 -0.065216
vn 0.064891 0.707109 -0.704121
vn 0.064891 0.707109 -0.704121
vn 0.064891 0.707109 -0.704121
vn 0.064891 0.707109 -0.704121
vn -0.639247 0.000000 -0.769002
vn -0.639247 0.000000 -0.769002
vn -0.639247 0.000000 -0.769002
vn -0.639247 0.000000 -0.769002
vn 0.709017 0.702161 0.065307
vn 0.709017 0.702161 0.065307
vn 0.715448 0.696468 0.055368
vn 0.715890 0.696069 0.054678
vn 0.769016 0.000000 -0.639229
vn 0.769016 0.000000 -0.639229
vn 0.769016 0.000000 -0.639229
vn 0.769016 0.000000 -0.639229
vn -0.704125 -0.707105 -0.064890
vn -0.704125 -0.707105 -0.064890
vn -0.704125 -0.707105 -0.064890
vn -0.704125 -0.707105 -0.064890
vn 0.064892 -0.707117 -0.704113
vn 0.064892 -0.707117 -0.704113
vn 0.064892 -0.707117 -0.704113
vn 0.064892 -0.707117 -0.704113
vn 0.704112 -0.707118 0.064892
vn 0.704112 -0.707118 0.064892
vn 0.704112 -0.707118 0.064892
vn 0.704112 -0.707118 0.064892
vn -0.637066 -0.000206 -0.770809
vn -0.637066 -0.000206 -0.770809
vn -0.637066 -0.000206 -0.770809
vn -0.637066 -0.000206 -0.770809
vn 0.065157 0.703752 -0.707451
vn 0.065157 0.703752 -0.707451
vn 0.065157 0.703752 -0.707451
vn 0.065157 0.703752 -0.707451
vn -0.995780 0.000001 -0.091771
vn -0.995780 0.000001 -0.091771
vn -0.995782 0.000001 -0.091755
vn 0.786895 0.034373 -0.616129
vn 0.784996 0.030123 -0.618768
vn 0.785467 -0.030253 -0.618164
vn 0.786378 -0.032294 -0.616901
vn 0.995780 0.000003 0.091770
vn 0.995781 0.000012 0.091764
vn 0.995780 0.000003 0.091770
vn 0.000000 -1.000000 0.000002
vn 0.000000 -1.000000 -0.000000
vn 0.000000 -1.000000 -0.000000
vn 0.000000 -1.000000 0.000002
vn -0.995781 -0.000002 -0.091761
vn -0.995780 0.000001 -0.091770
vn -0.995780 0.000000 -0.091771
vn -0.995781 -0.000002 -0.091761
vn -0.091770 0.000000 0.995780
vn -0.091770 -0.000000 0.995780
vn -0.091770 -0.000000 0.995780
vn -0.091770 0.000000 0.995780
vn -0.768994 0.000000 0.639256
vn -0.768994 0.000000 0.639256
vn -0.768993 0.000000 0.639257
vn -0.768993 0.000000 0.639257
vn 0.995780 -0.000003 0.091770
vn 0.995780 -0.000000 0.091770
vn 0.995780 -0.000000 0.091770
vn 0.995780 -0.000002 0.091771
vn 0.639226 0.000000 0.769019
vn 0.639226 0.000000 0.769019
vn 0.639226 0.000000 0.769019
vn 0.639226 0.000000 0.769019
vn -0.064892 0.707090 0.704140
vn -0.064892 0.707090 0.704140
vn -0.064892 0.707090 0.704140
vn -0.064892 0.707090 0.704140
vn -0.704127 0.707103 -0.064890
vn -0.704127 0.707103 -0.064890
vn -0.704127 0.707103 -0.064890
vn -0.704127 0.707103 -0.064890
vn 0.704128 0.707101 0.064895
vn 0.704128 0.707101 0.064895
vn 0.704127 0.707103 0.064894
vn 0.704127 0.707103 0.064894
vn 0.701523 -0.709727 0.064450
vn 0.701523 -0.709727 0.064450
vn 0.701523 -0.709727 0.064450
vn 0.701523 -0.709727 0.064450
vn 0.995780 0.000005 0.091770
vn 0.995780 0.000005 0.091770
vn 0.995780 -0.000000 0.091772
vn 0.064540 -0.710479 -0.700753
vn 0.064540 -0.710479 -0.700753
vn 0.064540 -0.710479 -0.700753
vn 0.064540 -0.710479 -0.700753
vn 0.704123 0.707107 0.064892
vn 0.704123 0.707107 0.064892
vn 0.704123 0.707107 0.064892
vn 0.704123 0.707107 0.064892
vn 0.000000 1.000000 -0.000006
vn 0.000000 1.000000 -0.000000
vn 0.000000 1.000000 -0.000000
vn 0.000000 1.000000 -0.000006
vn -0.701495 -0.709717 -0.064851
vn -0.701495 -0.709717 -0.064851
vn -0.701495 -0.709717 -0.064851
vn -0.701495 -0.709717 -0.064851
vn -0.995780 -0.000001 -0.091770
vn -0.995780 -0.000001 -0.091771
vn -0.995780 -0.000001 -0.091770
vn -0.704127 0.707102 -0.064893
vn -0.704127 0.707102 -0.064893
vn -0.704127 0.707102 -0.064893
vn -0.704127 0.707102 -0.064893
vn -0.639282 0.000000 -0.768972
vn -0.639282 0.000000 -0.768972
vn -0.639282 0.000000 -0.768972
vn -0.639282 0.000000 -0.768972
vn 0.064889 -0.707121 -0.704109
vn 0.064889 -0.707121 -0.704109
vn 0.064889 -0.707121 -0.704109
vn 0.064889 -0.707121 -0.704109
vn 0.769057 0.000000 -0.639180
vn 0.769057 0.000000 -0.639180
vn 0.769057 0.000000 -0.639180
vn 0.769057 0.000000 -0.639180
vn 0.064890 0.707129 -0.704101
vn 0.064890 0.707129 -0.704101
vn 0.064890 0.707129 -0.704101
vn 0.064890 0.707129 -0.704101
vn -0.091770 0.000000 0.995780
vn -0.091770 0.000000 0.995780
vn 0.000000 1.000000 -0.000003
vn 0.000000 1.000000 -0.000003
vn 0.091770 0.000000 -0.995780
vn 0.091770 0.000000 -0.995780
vn 0.091770 0.000000 -0.995780
vn 0.091770 0.000000 -0.995780
vn 0.000000 -1.000000 0.000002
vn 0.000000 -1.000000 0.000002
vn 0.995781 0.000015 0.091761
vn -0.995782 0.000001 -0.091751
vn -0.995780 0.000001 -0.091771
vn -0.995780 0.000001 -0.091771
vn 0.000000 -1.000000 -0.000000
vn 0.000000 -1.000000 -0.000000
vn 0.995780 0.000003 0.091770
vn 0.995780 0.000003 0.091770
vn 0.000000 1.000000 -0.000000
vn 0.000000 1.000000 -0.000000
vn 0.000000 1.000000 -0.000000
vn 0.000000 1.000000 -0.000000
vn 0.091770 0.000000 -0.995780
vn 0.091770 0.000000 -0.995780
vn 0.091770 0.000000 -0.995780
vn 0.091770 0.000000 -0.995780
vn 0.091770 0.000000 -0.995780
vn 0.091770 0.000000 -0.995780
vn 0.091770 0.000000 -0.995780
vn 0.091770 0.000000 -0.995780
vn 0.995780 0.000000 0.091771
vn -0.091770 0.000000 0.995780
vn -0.091770 0.000000 0.995780
vn -0.995780 -0.000001 -0.091771
vn 0.000000 -1.000000 0.000000
vn 0.000000 -1.000000 0.000000
vn 0.000000 -1.000000 0.000000
vn 0.000000 -1.000000 0.000000
vn -0.995780 -0.000001 -0.091770
vn -0.995780 -0.000001 -0.091770
vn 0.000000 1.000000 0.000000
vn 0.000000 1.000000 0.000000
vn 0.995780 0.000005 0.091770
vn 0.995780 0.000005 0.091770
vn -0.627891 -0.577349 0.521940
vn -0.627891 -0.577349 0.521940
vn -0.627891 -0.577349 0.521940
vn 0.521933 -0.577329 0.627915
vn 0.521933 -0.577329 0.627915
vn 0.521933 -0.577329 0.627915
vn -0.521934 0.577328 -0.627915
vn -0.521934 0.577328 -0.627915
vn -0.521934 0.577328 -0.627915
vn 0.627888 0.577354 -0.521938
vn 0.627888 0.577354 -0.521938
vn 0.627888 0.577354 -0.521938
vn -0.521934 -0.577328 -0.627915
vn -0.521934 -0.577328 -0.627915
vn -0.521934 -0.577328 -0.627915
vn 0.627888 -0.577354 -0.521938
vn 0.627888 -0.577354 -0.521938
vn 0.627888 -0.577354 -0.521938
vn -0.788766 0.396309 -0.469879
vn -0.788766 0.396309 -0.469880
vn -0.788766 0.396309 -0.469880
vn -0.788766 0.396309 -0.469880
vn -0.788766 0.396309 -0.469879
vn 0.860979 0.395563 -0.319757
vn -0.627892 0.577347 0.521941
vn -0.627892 0.577347 0.521941
vn -0.627892 0.577347 0.521941
vn 0.521938 0.577354 0.627888
vn 0.521938 0.577354 0.627888
vn 0.521938 0.577354 0.627888
vn 0.860808 -0.397419 -0.317911
vn 0.860808 -0.397419 -0.317911
vn 0.860808 -0.397419 -0.317911
vn -0.788701 -0.395499 -0.470671
vn -0.788701 -0.395499 -0.470671
vn -0.788701 -0.395499 -0.470671
vn -0.788701 -0.395499 -0.470671
vn -0.788701 -0.395499 -0.470671
vn -0.522003 -0.577372 -0.627817
vn -0.522003 -0.577372 -0.627817
vn -0.522003 -0.577372 -0.627817
vn 0.627935 -0.577340 -0.521896
vn 0.627935 -0.577340 -0.521896
vn 0.627935 -0.577340 -0.521896
vn -0.521991 0.577358 -0.627840
vn -0.521991 0.577358 -0.627840
vn -0.521991 0.577358 -0.627840
vn 0.627935 0.577340 -0.521896
vn 0.627935 0.577340 -0.521896
vn 0.627935 0.577340 -0.521896
s off
g polySurface3
f 1/1/1 3/2/2 19/3/3 21/4/4
f 2/5/5 1/6/6 6/7/7 5/8/8
f 3/9/9 2/5/10 8/10/11 7/11/12
f 4/12/13 6/13/14 22/14/15 24/15/16
f 5/8/17 4/16/18 12/17/19 11/18/20
f 7/19/21 9/20/22 14/21/23 13/22/24
f 9/20/25 8/10/26 11/18/27 10/23/28
f 10/23/29 12/24/30 18/25/31 17/26/32
f 13/27/33 15/28/34 20/29/35 19/30/36
f 15/28/37 14/21/38 17/26/39 16/31/40
f 16/31/41 18/32/42 24/33/43 23/34/44
f 21/4/45 20/29/46 23/34/47 22/14/48
f 2/5/49 5/8/50 11/18/51 8/10/52
f 9/20/53 10/23/54 17/26/55 14/21/56
f 15/28/57 16/31/58 23/34/59 20/29/60
f 21/4/61 22/14/62 6/13/63 1/1/64
f 4/16/65 24/35/66 18/36/67 12/17/68
f 19/37/69 3/9/70 7/11/71 13/38/72
f 1/6/73 2/5/74 3/9/75
f 4/16/76 5/8/77 6/7/78
f 7/11/79 8/10/80 9/20/81
f 10/23/82 11/18/83 12/17/84
f 13/22/85 14/21/86 15/28/87
f 16/31/88 17/26/89 18/25/90
f 19/30/91 20/29/92 21/4/93
f 22/14/94 23/34/95 24/33/96
s 1
f 25/39/97 27/40/98 62/41/99 61/42/100
s off
f 26/43/101 25/44/102 30/45/103 29/46/104
s 2
f 27/47/105 26/43/106 33/48/107 32/49/108
s 3
f 28/50/109 30/51/110 66/52/111 65/53/112
s 4
f 29/46/113 28/54/114 37/55/115 36/56/116
s 2
f 31/57/117 34/58/118 70/59/119 69/60/120
s 5
f 32/49/121 31/61/122 55/62/123 54/63/124
s 6
f 34/58/125 33/48/126 36/56/127 35/64/128
s 4
f 35/64/129 38/65/130 74/66/131 73/67/132
s 7
f 38/68/133 37/55/134 57/69/135 56/70/136
s off
f 39/71/137 41/72/138 53/73/139 52/74/140
f 40/75/141 39/76/142 44/77/143 43/78/144
f 41/79/145 40/75/146 46/80/147 45/81/148
s 8
f 42/82/149 44/83/150 59/84/151 58/85/152
s off
f 43/78/153 42/86/154 50/87/155 49/88/156
s 1
f 45/89/157 47/90/158 64/91/159 63/92/160
s off
f 47/93/161 46/80/162 49/88/163 48/94/164
s 3
f 48/94/165 50/95/166 68/96/167 67/97/168
s off
f 51/98/169 55/99/170 94/100/171 93/101/172
f 52/102/173 51/98/174 60/103/175 59/104/176
s 5
f 54/63/124 53/73/177 63/92/178 62/105/179
s 8
f 56/106/180 60/103/181 86/107/182 85/108/183
s 7
f 58/85/184 57/69/135 65/109/185 68/110/186
s 10
f 61/42/187 64/111/188 67/97/189 66/52/190
s 5
f 69/60/191 72/112/192 95/113/193 94/100/194
s 6
f 71/114/195 70/59/196 73/67/197 76/115/198
s 2
f 72/112/199 71/114/200 77/116/201 79/117/202
s 7
f 75/118/203 74/66/204 85/108/205 84/119/206
s 4
f 76/115/207 75/118/208 80/120/209 82/121/210
s off
f 78/122/211 77/116/212 82/121/213 81/123/214
s 12
f 79/117/215 78/122/216 99/124/217 98/125/218
s 13
f 81/123/219 80/120/220 90/126/221 89/127/222
s off
f 83/128/223 87/129/224 105/130/225 104/131/226
s 7
f 84/119/206 83/128/227 91/132/228 90/126/229
s off
f 87/129/230 86/107/231 93/101/232 92/133/233
s 13
f 88/134/234 91/132/235 112/135/236 111/136/237
s 15
f 89/127/238 88/134/239 100/137/240 99/124/241
s off
f 92/133/242 96/138/243 103/139/244 102/140/245
s 5
f 96/138/246 95/113/193 98/125/247 97/141/248
s 12
f 97/141/249 100/137/250 109/142/251 108/143/252
s off
f 101/144/253 103/139/254 108/143/255 107/145/256
f 102/140/257 101/144/258 106/146/259 105/130/260
f 104/131/261 106/146/262 110/147/263 112/135/264
f 107/145/265 109/142/266 111/136/267 110/147/268
s 6
f 26/43/269 29/46/270 36/56/127 33/48/126
s 15
f 78/122/271 81/123/272 89/127/238 99/124/241
s off
f 40/75/273 43/78/274 49/88/275 46/80/276
s 10
f 61/42/187 66/52/190 30/51/277 25/39/278
s 7
f 28/54/279 65/109/185 57/69/135 37/55/134
s 5
f 62/105/179 27/47/280 32/49/121 54/63/124
f 45/89/281 63/92/178 53/73/177 41/72/282
s 10
f 47/93/283 48/94/284 67/97/189 64/111/188
s 7
f 58/85/184 68/110/186 50/148/285 42/82/286
s off
f 52/102/287 59/104/288 44/77/289 39/76/290
s 6
f 34/58/125 35/64/128 73/67/197 70/59/196
s 7
f 38/65/133 56/106/136 85/108/205 74/66/204
s off
f 60/103/291 51/98/292 93/101/293 86/107/294
s 5
f 55/99/123 31/57/122 69/60/191 94/100/194
s off
f 106/146/295 101/144/296 107/145/297 110/147/298
s 7
f 75/118/203 84/119/206 90/126/229 80/120/299
s 6
f 71/114/195 76/115/198 82/121/300 77/116/301
s 5
f 95/113/193 72/112/192 79/117/302 98/125/247
s off
f 87/129/303 92/133/304 102/140/305 105/130/306
s 5
f 96/138/246 97/141/248 108/143/307 103/139/308
s 15
f 100/137/240 88/134/239 111/136/309 109/142/310
s 7
f 91/132/228 83/128/227 104/131/311 112/135/312
s off
f 25/44/313 26/43/314 27/47/315
f 28/54/316 29/46/317 30/45/318
s 2
f 31/57/117 32/49/108 33/48/107 34/58/118
s 4
f 35/64/129 36/56/116 37/55/115 38/149/130
s off
f 39/76/319 40/75/320 41/79/321
f 42/86/322 43/78/323 44/77/324
f 45/81/325 46/80/326 47/93/327
f 48/94/328 49/88/329 50/87/330
f 51/150/331 52/151/332 53/73/333 54/63/334 55/62/335
s 8
f 56/70/180 57/69/336 58/85/152 59/152/151 60/153/181
s 1
f 61/42/100 62/41/99 63/154/160 64/111/159
s 3
f 65/53/112 66/52/111 67/97/168 68/155/167
s 2
f 69/60/120 70/59/119 71/114/200 72/112/199
s 4
f 73/67/132 74/66/131 75/118/208 76/115/207
s off
f 77/116/337 78/122/338 79/117/339
f 80/120/340 81/123/341 82/121/342
s 8
f 83/128/343 84/119/344 85/108/183 86/107/182 87/129/345
s 13
f 88/134/234 89/127/222 90/126/221 91/132/235
s off
f 92/133/346 93/101/347 94/100/348 95/113/349 96/138/350
s 12
f 97/141/249 98/125/218 99/124/217 100/137/250
s off
f 101/144/351 102/140/352 103/139/353
f 104/131/354 105/130/355 106/146/356
f 107/145/357 108/143/358 109/142/359
f 110/147/360 111/136/361 112/135/362
