# This file uses centimeters as units for non-parametric coordinates.

g default
v -1.902712 0.000000 2.084384
v 4.361347 0.000000 2.084384
v -1.902712 8.873060 2.084384
v 4.361347 8.873060 2.084384
v -1.902717 8.873060 -1.786419
v 4.361351 8.873060 -1.786419
v -1.902717 0.000000 -1.786419
v 4.361351 0.000000 -1.786419
v -1.902717 0.000000 2.084384
v 4.361351 0.000000 2.084384
v 4.361351 8.873060 2.084384
v -1.902717 8.873060 2.084384
v -1.412601 8.873060 2.084384
v -1.412601 8.873060 -1.786419
v -1.412601 0.000000 -1.786419
v -1.412601 0.000000 2.084384
v -1.412601 0.000000 2.084384
v -1.412601 8.873060 2.084384
v 3.858438 8.873060 -1.786419
v 3.858438 0.000000 -1.786419
v 3.858438 0.000000 2.084384
v 3.858438 0.000000 2.084384
v 3.858438 8.873060 2.084384
v 3.858438 8.873060 2.084384
v 4.361351 8.289646 2.084384
v 4.361351 8.289646 2.084384
v 3.858438 8.289646 2.084384
v -1.412601 8.289646 2.084384
v -1.902717 8.289646 2.084384
v -1.902717 8.289646 2.084384
v -1.902717 8.289646 -1.786419
v -1.412601 8.289646 -1.786419
v 3.858438 8.289646 -1.786419
v 4.361351 8.289646 -1.786419
v 4.361351 0.634097 2.084384
v 4.361351 0.634097 2.084384
v 3.858438 0.634097 2.084384
v -1.412601 0.634097 2.084384
v -1.902717 0.634097 2.084384
v -1.902717 0.634097 2.084384
v -1.902717 0.634097 -1.786419
v -1.412601 0.634097 -1.786419
v 3.858438 0.634097 -1.786419
v 4.361351 0.634097 -1.786419
v -1.412601 0.634097 -1.727102
v -1.412601 8.289646 -1.727102
v 3.858438 0.634097 -1.727102
v 3.858438 8.289646 -1.727102
v -1.412601 0.634097 -1.727102
v -1.412601 8.289646 -1.727102
v 3.858438 0.634097 -1.727102
v 3.858438 8.289646 -1.727102
vt 0.375000 0.000000
vt 0.625000 0.000000
vt 0.375000 0.250000
vt 0.625000 0.250000
vt 0.375000 0.500000
vt 0.625000 0.500000
vt 0.375000 0.750000
vt 0.625000 0.750000
vt 0.375000 1.000000
vt 0.625000 1.000000
vt 0.875000 0.000000
vt 0.875000 0.250000
vt 0.125000 0.000000
vt 0.125000 0.250000
vt 0.375000 0.000000
vt 0.625000 0.000000
vt 0.625000 0.250000
vt 0.375000 0.250000
vt 0.394561 0.250000
vt 0.394561 0.500000
vt 0.394561 0.750000
vt 0.394561 0.000000
vt 0.394561 1.000000
vt 0.394561 0.000000
vt 0.394561 0.250000
vt 0.604929 0.500000
vt 0.604929 0.750000
vt 0.604929 0.000000
vt 0.604929 1.000000
vt 0.604929 0.000000
vt 0.604929 0.250000
vt 0.604929 0.250000
vt 0.625000 0.233562
vt 0.625000 0.233562
vt 0.604929 0.233562
vt 0.394561 0.233562
vt 0.375000 0.233562
vt 0.375000 0.233562
vt 0.125000 0.233562
vt 0.375000 0.516438
vt 0.394561 0.516438
vt 0.604929 0.516438
vt 0.625000 0.516438
vt 0.875000 0.233562
vt 0.625000 0.017866
vt 0.625000 0.017866
vt 0.604929 0.017866
vt 0.394561 0.017866
vt 0.375000 0.017866
vt 0.375000 0.017866
vt 0.125000 0.017866
vt 0.375000 0.732134
vt 0.394561 0.732134
vt 0.604929 0.732134
vt 0.625000 0.732134
vt 0.875000 0.017866
vt 0.394561 0.233562
vt 0.394561 0.017866
vt 0.604929 0.017866
vt 0.604929 0.233562
vt 0.394561 0.233562
vt 0.394561 0.017866
vt 0.604929 0.017866
vt 0.604929 0.233562
vn 0.000000 0.000000 1.000000
vn 0.000000 0.000000 1.000000
vn 0.000000 0.000000 1.000000
vn 0.000000 0.000000 1.000000
vn 0.000000 1.000000 0.000000
vn 0.000000 1.000000 0.000000
vn 0.000000 1.000000 0.000000
vn 0.000000 1.000000 0.000000
vn 0.000000 0.000000 -1.000000
vn 0.000000 0.000000 -1.000000
vn 0.000000 0.000000 -1.000000
vn 0.000000 0.000000 -1.000000
vn 0.000000 -1.000000 0.000000
vn 0.000000 -1.000000 0.000000
vn 0.000000 -1.000000 0.000000
vn 0.000000 -1.000000 0.000000
vn 1.000000 -0.000003 0.000000
vn 1.000000 -0.000003 0.000000
vn 1.000000 -0.000000 -0.000000
vn 1.000000 -0.000000 -0.000000
vn -1.000000 -0.000004 0.000001
vn -1.000000 -0.000004 0.000001
vn -1.000000 -0.000000 0.000000
vn -1.000000 -0.000000 0.000000
vn 0.000000 0.000000 0.000000
vn 0.000000 0.000000 0.000000
vn 0.000000 0.000000 0.000000
vn 0.000000 0.000000 0.000000
vn 0.000000 0.000000 -1.000000
vn 0.000000 0.000000 -0.000000
vn 0.000000 0.000000 -0.000000
vn 0.000000 0.000000 -1.000000
vn 0.000000 0.000000 0.000000
vn 0.000000 0.000000 0.000000
vn 0.000000 0.000000 0.000000
vn 0.000000 0.000000 0.000000
vn 0.000000 0.000000 -0.000000
vn 0.000000 0.000000 -1.000000
vn 0.000000 0.000000 -1.000000
vn 0.000000 0.000000 -0.000000
vn 0.000000 1.000000 0.000000
vn 0.000000 1.000000 0.000000
vn 0.000000 0.000000 -1.000000
vn 0.000000 0.000000 -1.000000
vn 0.000000 -1.000000 0.000000
vn 0.000000 -1.000000 0.000000
vn 0.000000 0.000000 0.000000
vn 0.000000 0.000000 0.000000
vn 0.000000 0.000000 0.000000
vn 0.000000 0.000000 0.000000
vn 0.000000 0.000000 1.000000
vn 0.000000 0.000000 1.000000
vn 0.000000 0.000000 0.000000
vn 0.000000 0.000000 0.000000
vn 0.000000 0.000000 0.000000
vn 0.000000 0.000000 0.000000
vn 0.000000 0.000000 -1.000000
vn 0.000000 0.000000 -1.000000
vn 0.000000 -1.000000 0.000000
vn 0.000000 -1.000000 0.000000
vn 0.000000 0.000000 0.000000
vn 0.000000 0.000000 0.000000
vn 0.000000 0.000000 0.000000
vn 0.000000 0.000000 0.000000
vn 0.000000 0.000000 1.000000
vn 0.000000 0.000000 1.000000
vn 0.000000 0.000000 -0.000000
vn 0.000000 0.000000 -0.000000
vn 0.000000 0.000000 -0.000000
vn 0.000000 0.000000 -0.000000
vn 0.000000 1.000000 0.000000
vn 0.000000 1.000000 0.000000
vn 0.000000 0.000000 -0.000000
vn 0.000000 0.000000 -1.000000
vn 0.000000 0.000000 -1.000000
vn 0.000000 0.000000 -0.000000
vn 0.000000 0.000000 1.000000
vn 0.000000 0.000000 1.000000
vn 0.000000 0.000000 1.000000
vn 0.000000 0.000000 1.000000
vn 0.000000 0.000000 1.000000
vn 0.000000 0.000000 1.000000
vn 0.000000 0.000000 1.000000
vn 0.000000 0.000000 1.000000
vn 0.000000 0.000000 -1.000000
vn 0.000000 0.000000 -0.000000
vn 0.000000 0.000000 -0.000000
vn 0.000000 0.000000 -1.000000
vn -1.000000 0.000000 0.000000
vn -1.000000 0.000000 0.000000
vn -1.000000 0.000004 0.000001
vn -1.000000 0.000004 0.000001
vn 0.000000 0.000000 -1.000000
vn 0.000000 0.000000 -1.000000
vn 0.000000 0.000000 -1.000000
vn 0.000000 0.000000 -1.000000
vn 0.000000 0.000000 -1.000000
vn 0.000000 0.000000 -1.000000
vn 0.000000 0.000000 -1.000000
vn 0.000000 0.000000 -1.000000
vn 1.000000 0.000000 -0.000000
vn 1.000000 0.000000 -0.000000
vn 1.000000 0.000003 0.000001
vn 1.000000 0.000003 0.000001
vn 0.000000 0.000000 0.000000
vn 0.000000 0.000000 0.000000
vn 0.000000 0.000000 0.000000
vn 0.000000 0.000000 0.000000
vn 0.000000 0.000000 1.000000
vn 0.000000 0.000000 1.000000
vn 0.000000 0.000000 1.000000
vn 0.000000 0.000000 1.000000
vn 0.000000 0.000000 0.000000
vn 0.000000 0.000000 0.000000
vn 0.000000 0.000000 0.000000
vn 0.000000 0.000000 0.000000
vn 1.000000 0.000000 0.000000
vn 1.000000 0.000000 0.000000
vn 1.000000 0.000000 0.000000
vn 1.000000 0.000000 0.000000
vn 0.000000 1.000000 0.000000
vn 0.000000 1.000000 0.000000
vn 0.000000 1.000000 0.000000
vn 0.000000 1.000000 0.000000
vn -1.000000 0.000000 0.000000
vn -1.000000 0.000000 0.000000
vn -1.000000 0.000000 0.000000
vn -1.000000 0.000000 0.000000
vn 0.000000 -1.000000 0.000000
vn 0.000000 -1.000000 0.000000
vn 0.000000 -1.000000 0.000000
vn 0.000000 -1.000000 0.000000
vn 0.000000 0.000000 0.000000
vn 0.000000 0.000000 0.000000
vn 0.000000 0.000000 0.000000
vn 0.000000 0.000000 0.000000
vn 0.000000 0.000000 0.000000
vn 0.000000 0.000000 0.000000
vn 0.000000 0.000000 0.000000
vn 0.000000 0.000000 0.000000
vn 0.000000 0.000000 0.000000
vn 0.000000 0.000000 0.000000
vn 0.000000 0.000000 0.000000
vn 0.000000 0.000000 0.000000
vn 0.000000 0.000000 0.000000
vn 0.000000 0.000000 0.000000
vn 0.000000 0.000000 0.000000
vn 0.000000 0.000000 0.000000
s 1
g pCube1
f 9/15/1 17/24/2 38/48/3 39/49/4
s 2
f 3/3/5 13/19/6 14/20/7 5/5/8
s 3
f 41/52/9 42/53/10 15/21/11 7/7/12
s 4
f 7/7/13 15/21/14 16/23/15 1/9/16
s 5
f 2/2/17 8/11/18 44/56/19 35/45/20
s 6
f 7/13/21 1/1/22 40/50/23 41/51/24
s off
f 1/1/25 16/22/26 17/24/27 9/15/28
f 2/2/29 35/45/30 36/46/31 10/16/32
f 18/25/33 13/19/34 3/3/35 12/18/36
f 40/50/37 1/1/38 9/15/39 39/49/40
s 2
f 13/19/6 24/32/41 19/26/42 14/20/7
s 3
f 15/21/11 42/53/10 43/54/43 20/27/44
s 4
f 16/23/15 15/21/14 20/27/45 21/29/46
s off
f 17/24/47 16/22/48 21/28/49 22/30/50
s 1
f 38/48/3 17/24/2 22/30/51 37/47/52
s off
f 24/32/53 13/19/54 18/25/55 23/31/56
s 3
f 20/27/44 43/54/43 44/55/57 8/8/58
s 4
f 21/29/46 20/27/45 8/8/59 2/10/60
s off
f 22/30/61 21/28/62 2/2/63 10/16/64
s 1
f 37/47/52 22/30/51 10/16/65 36/46/66
s off
f 4/4/67 24/32/68 23/31/69 11/17/70
s 2
f 19/26/42 24/32/41 4/4/71 6/6/72
s off
f 25/33/73 4/4/74 11/17/75 26/34/76
s 1
f 23/31/77 27/35/78 26/34/79 11/17/80
f 18/25/81 28/36/82 27/35/78 23/31/77
f 29/37/83 28/36/82 18/25/81 12/18/84
s off
f 3/3/85 30/38/86 29/37/87 12/18/88
s 6
f 31/39/89 30/38/90 3/3/91 5/14/92
s 3
f 5/5/93 14/20/94 32/41/95 31/40/96
f 33/42/97 32/41/95 14/20/94 19/26/98
f 34/43/99 33/42/97 19/26/98 6/6/100
s 5
f 25/33/101 34/44/102 6/12/103 4/4/104
s off
f 35/45/105 25/33/106 26/34/107 36/46/108
s 1
f 27/35/78 37/47/52 36/46/66 26/34/79
s off
f 50/61/109 49/62/110 51/63/111 52/64/112
s 1
f 39/49/4 38/48/3 28/36/82 29/37/83
s off
f 30/38/113 40/50/114 39/49/115 29/37/116
s 6
f 41/51/24 40/50/23 30/38/90 31/39/89
s 3
f 31/40/96 32/41/95 42/53/10 41/52/9
f 43/54/43 42/53/10 32/41/95 33/42/97
f 44/55/57 43/54/43 33/42/97 34/43/99
s 5
f 35/45/20 44/56/19 34/44/102 25/33/101
s off
f 28/36/117 38/48/118 45/58/119 46/57/120
f 38/48/121 37/47/122 47/59/123 45/58/124
f 37/47/125 27/35/126 48/60/127 47/59/128
f 27/35/129 28/36/130 46/57/131 48/60/132
f 46/57/133 45/58/134 49/62/135 50/61/136
f 45/58/137 47/59/138 51/63/139 49/62/140
f 47/59/141 48/60/142 52/64/143 51/63/144
f 48/60/145 46/57/146 50/61/147 52/64/148
