# This file uses centimeters as units for non-parametric coordinates.

g default
v -0.206770 0.806630 0.179841
v 0.206770 0.806630 0.179841
v -0.206770 0.866373 0.179841
v 0.206770 0.866373 0.179841
v -0.206770 0.809090 -0.179841
v 0.206770 0.809090 -0.179841
v -0.206770 0.806630 -0.179841
v 0.206770 0.806630 -0.179841
v -0.206770 0.842032 0.030097
v -0.206770 0.806630 0.030097
v 0.206770 0.806630 0.030097
v 0.206770 0.842032 0.030097
v -0.104864 0.846850 0.934642
v 0.142572 0.825290 0.888056
v 0.131512 0.988967 0.902132
v -0.146048 1.017480 0.945221
v -0.206770 1.009548 0.653041
v 0.206770 1.009548 0.653041
v 0.206770 0.806630 0.653041
v -0.206770 0.806630 0.653041
v 0.063419 0.937511 0.920438
v 0.053948 0.956101 0.920438
v 0.039195 0.970853 0.920438
v 0.020606 0.980325 0.920438
v 0.000000 0.983588 0.920438
v -0.020606 0.980325 0.920438
v -0.039195 0.970853 0.920438
v -0.053948 0.956101 0.920438
v -0.063419 0.937511 0.920438
v -0.066683 0.916905 0.920438
v -0.063419 0.896299 0.920438
v -0.053948 0.877710 0.920438
v -0.039195 0.862957 0.920438
v -0.020606 0.853486 0.920438
v -0.000000 0.850222 0.920438
v 0.020606 0.853486 0.920438
v 0.039195 0.862957 0.920438
v 0.053948 0.877710 0.920438
v 0.063419 0.896299 0.920438
v 0.066683 0.916905 0.920438
v 0.048644 0.932711 1.079401
v 0.041379 0.946969 1.079401
v 0.030064 0.958284 1.079401
v 0.015805 0.965549 1.079401
v -0.000000 0.968052 1.079401
v -0.015805 0.965549 1.079401
v -0.030064 0.958284 1.079401
v -0.041379 0.946969 1.079401
v -0.048644 0.932711 1.079401
v -0.051147 0.916905 1.079401
v -0.048644 0.901100 1.079401
v -0.041379 0.886842 1.079401
v -0.030064 0.875526 1.079401
v -0.015805 0.868261 1.079401
v -0.000000 0.865758 1.079401
v 0.015805 0.868261 1.079401
v 0.030064 0.875526 1.079401
v 0.041379 0.886842 1.079401
v 0.048644 0.901100 1.079401
v 0.051147 0.916905 1.079401
v 0.000000 0.916905 0.920438
v 0.000000 0.916905 1.079401
vt 0.375000 0.000000
vt 0.625000 0.000000
vt 0.375000 0.250000
vt 0.625000 0.250000
vt 0.375000 0.500000
vt 0.625000 0.500000
vt 0.375000 0.750000
vt 0.625000 0.750000
vt 0.375000 1.000000
vt 0.625000 1.000000
vt 0.875000 0.000000
vt 0.875000 0.250000
vt 0.125000 0.000000
vt 0.125000 0.250000
vt 0.270919 0.250000
vt 0.375000 0.354081
vt 0.270919 0.000000
vt 0.375000 0.895919
vt 0.625000 0.895919
vt 0.729081 0.000000
vt 0.625000 0.354081
vt 0.729081 0.250000
vt 0.375000 0.000000
vt 0.625000 0.000000
vt 0.625000 0.250000
vt 0.375000 0.250000
vt 0.375000 0.250000
vt 0.625000 0.250000
vt 0.625000 0.000000
vt 0.375000 0.000000
vt 0.375000 0.312500
vt 0.387500 0.312500
vt 0.387500 0.688440
vt 0.375000 0.688440
vt 0.400000 0.312500
vt 0.400000 0.688440
vt 0.412500 0.312500
vt 0.412500 0.688440
vt 0.425000 0.312500
vt 0.425000 0.688440
vt 0.437500 0.312500
vt 0.437500 0.688440
vt 0.450000 0.312500
vt 0.450000 0.688440
vt 0.462500 0.312500
vt 0.462500 0.688440
vt 0.475000 0.312500
vt 0.475000 0.688440
vt 0.487500 0.312500
vt 0.487500 0.688440
vt 0.500000 0.312500
vt 0.500000 0.688440
vt 0.512500 0.312500
vt 0.512500 0.688440
vt 0.525000 0.312500
vt 0.525000 0.688440
vt 0.537500 0.312500
vt 0.537500 0.688440
vt 0.550000 0.312500
vt 0.550000 0.688440
vt 0.562500 0.312500
vt 0.562500 0.688440
vt 0.575000 0.312500
vt 0.575000 0.688440
vt 0.587500 0.312500
vt 0.587500 0.688440
vt 0.600000 0.312500
vt 0.600000 0.688440
vt 0.612500 0.312500
vt 0.612500 0.688440
vt 0.625000 0.312500
vt 0.625000 0.688440
vt 0.626409 0.064408
vt 0.648603 0.107966
vt 0.500000 0.150000
vt 0.591842 0.029841
vt 0.548284 0.007647
vt 0.500000 -0.000000
vt 0.451716 0.007647
vt 0.408159 0.029841
vt 0.373591 0.064409
vt 0.351397 0.107966
vt 0.343750 0.156250
vt 0.351397 0.204534
vt 0.373591 0.248091
vt 0.408159 0.282659
vt 0.451716 0.304853
vt 0.500000 0.312500
vt 0.548284 0.304853
vt 0.591841 0.282659
vt 0.626409 0.248091
vt 0.648603 0.204534
vt 0.656250 0.156250
vt 0.648603 0.892034
vt 0.626409 0.935591
vt 0.500000 0.837500
vt 0.591841 0.970159
vt 0.548284 0.992353
vt 0.500000 1.000000
vt 0.451716 0.992353
vt 0.408159 0.970159
vt 0.373591 0.935591
vt 0.351397 0.892034
vt 0.343750 0.843750
vt 0.351397 0.795466
vt 0.373591 0.751909
vt 0.408159 0.717341
vt 0.451716 0.695147
vt 0.500000 0.687500
vt 0.548284 0.695147
vt 0.591842 0.717341
vt 0.626409 0.751908
vt 0.648603 0.795466
vt 0.656250 0.843750
vn 0.163822 -0.047068 0.985366
vn 0.163822 -0.047068 0.985367
vn 0.163822 -0.047068 0.985366
vn 0.163822 -0.047068 0.985366
vn 0.000000 0.987045 -0.160445
vn 0.000000 0.987045 -0.160445
vn 0.000000 0.987555 -0.157277
vn 0.000000 0.987555 -0.157277
vn 0.000000 0.000000 -1.000000
vn 0.000000 0.000000 -1.000000
vn 0.000000 0.000000 -1.000000
vn 0.000000 0.000000 -1.000000
vn 0.000000 -1.000000 0.000000
vn 0.000000 -1.000000 0.000000
vn 0.000000 -1.000000 0.000000
vn 0.000000 -1.000000 0.000000
vn 1.000000 0.000000 0.000000
vn 1.000000 0.000000 0.000000
vn 1.000000 0.000000 0.000000
vn 1.000000 0.000000 0.000000
vn -1.000000 0.000000 0.000000
vn -1.000000 0.000000 0.000000
vn -1.000000 0.000000 0.000000
vn -1.000000 0.000000 0.000000
vn -1.000000 0.000000 0.000000
vn -1.000000 0.000000 0.000000
vn 0.000000 -1.000000 0.000000
vn 0.000000 -1.000000 0.000000
vn 1.000000 0.000000 0.000000
vn 1.000000 0.000000 0.000000
vn 0.000000 0.987912 -0.155015
vn 0.000000 0.987912 -0.155015
vn -0.006528 -0.999501 0.030893
vn -0.006237 -0.999545 0.029516
vn 0.991485 0.008615 0.129934
vn 0.993246 0.007676 0.115772
vn 0.000000 0.957147 -0.289602
vn 0.000000 0.957147 -0.289602
vn 0.012285 0.979233 -0.202366
vn 0.011707 0.978372 -0.206524
vn -0.990428 -0.051717 0.127977
vn -0.986816 -0.060640 0.150057
vn 0.042734 0.998786 0.024487
vn 0.042734 0.998786 0.024487
vn 0.960742 0.018355 0.276836
vn 0.960742 0.018355 0.276836
vn -0.024291 -0.993074 0.114955
vn -0.024291 -0.993074 0.114955
vn -0.953406 -0.113036 0.279714
vn -0.953406 -0.113036 0.279714
vn 0.946547 0.307551 0.097270
vn 0.805181 0.584998 0.097270
vn 0.805181 0.584998 0.097270
vn 0.946547 0.307551 0.097270
vn 0.584998 0.805181 0.097270
vn 0.584998 0.805181 0.097270
vn 0.307552 0.946547 0.097270
vn 0.307552 0.946547 0.097270
vn -0.000000 0.995258 0.097270
vn -0.000000 0.995258 0.097270
vn -0.307552 0.946546 0.097270
vn -0.307552 0.946547 0.097270
vn -0.584999 0.805180 0.097270
vn -0.584999 0.805180 0.097270
vn -0.805181 0.584998 0.097270
vn -0.805181 0.584998 0.097270
vn -0.946547 0.307552 0.097269
vn -0.946547 0.307552 0.097269
vn -0.995258 -0.000000 0.097269
vn -0.995258 -0.000000 0.097269
vn -0.946547 -0.307552 0.097269
vn -0.946547 -0.307552 0.097269
vn -0.805181 -0.584998 0.097269
vn -0.805181 -0.584998 0.097269
vn -0.584998 -0.805181 0.097270
vn -0.584998 -0.805181 0.097270
vn -0.307551 -0.946547 0.097270
vn -0.307551 -0.946547 0.097270
vn 0.000000 -0.995258 0.097270
vn 0.000000 -0.995258 0.097270
vn 0.307552 -0.946547 0.097270
vn 0.307552 -0.946547 0.097270
vn 0.584999 -0.805180 0.097269
vn 0.584999 -0.805180 0.097269
vn 0.805181 -0.584998 0.097269
vn 0.805181 -0.584998 0.097269
vn 0.946547 -0.307552 0.097270
vn 0.946547 -0.307552 0.097270
vn 0.995258 -0.000001 0.097270
vn 0.995258 -0.000001 0.097270
vn 0.000000 0.000000 -1.000000
vn 0.000000 0.000000 -1.000000
vn 0.000000 0.000000 -1.000000
vn 0.000000 0.000000 -1.000000
vn 0.000000 0.000000 -1.000000
vn 0.000000 0.000000 -1.000000
vn 0.000000 0.000000 -1.000000
vn 0.000000 0.000000 -1.000000
vn 0.000000 0.000000 -1.000000
vn 0.000000 0.000000 -1.000000
vn 0.000000 0.000000 -1.000000
vn 0.000000 0.000000 -1.000000
vn 0.000000 0.000000 -1.000000
vn 0.000000 0.000000 -1.000000
vn 0.000000 0.000000 -1.000000
vn 0.000000 0.000000 -1.000000
vn 0.000000 0.000000 -1.000000
vn 0.000000 0.000000 -1.000000
vn 0.000000 0.000000 -1.000000
vn 0.000000 0.000000 -1.000000
vn 0.000000 0.000000 -1.000000
vn -0.000002 0.000000 1.000000
vn -0.000002 0.000000 1.000000
vn -0.000000 0.000000 1.000000
vn -0.000005 0.000000 1.000000
vn -0.000005 0.000000 1.000000
vn 0.000000 0.000000 1.000000
vn 0.000000 0.000000 1.000000
vn -0.000005 0.000000 1.000000
vn -0.000005 0.000000 1.000000
vn 0.000000 0.000000 1.000000
vn 0.000000 0.000000 1.000000
vn 0.000002 0.000000 1.000000
vn 0.000002 0.000000 1.000000
vn 0.000005 0.000000 1.000000
vn 0.000000 0.000000 1.000000
vn -0.000000 0.000000 1.000000
vn 0.000005 0.000000 1.000000
vn 0.000005 0.000000 1.000000
vn 0.000005 0.000000 1.000000
vn 0.000000 0.000000 1.000000
vn 0.000000 0.000000 1.000000
s off
g pCube4
f 13/23/1 14/24/2 15/25/3 16/26/4
s 1
f 3/3/5 4/4/6 12/21/7 9/16/8
s off
f 5/5/9 6/6/10 8/8/11 7/7/12
s 2
f 10/18/13 11/19/14 2/10/15 1/9/16
s 3
f 2/2/17 11/20/18 12/22/19 4/4/20
s 4
f 10/17/21 1/1/22 3/3/23 9/15/24
f 7/13/25 10/17/21 9/15/24 5/14/26
s 2
f 7/7/27 8/8/28 11/19/14 10/18/13
s 3
f 12/22/19 11/20/18 8/11/29 6/12/30
s 1
f 9/16/8 12/21/7 6/6/31 5/5/32
s 2
f 1/1/16 2/2/15 19/29/33 20/30/34
s 3
f 2/2/17 4/4/20 18/28/35 19/29/36
s 5
f 4/4/37 3/3/38 17/27/39 18/28/40
s 4
f 3/3/23 1/1/22 20/30/41 17/27/42
s 5
f 18/28/40 17/27/39 16/26/43 15/25/44
s 3
f 19/29/36 18/28/35 15/25/45 14/24/46
s 2
f 20/30/34 19/29/33 14/24/47 13/23/48
s 4
f 17/27/42 20/30/41 13/23/49 16/26/50
s 6
f 21/31/51 22/32/52 42/33/53 41/34/54
f 22/32/52 23/35/55 43/36/56 42/33/53
f 23/35/55 24/37/57 44/38/58 43/36/56
f 24/37/57 25/39/59 45/40/60 44/38/58
f 25/39/59 26/41/61 46/42/62 45/40/60
f 26/41/61 27/43/63 47/44/64 46/42/62
f 27/43/63 28/45/65 48/46/66 47/44/64
f 28/45/65 29/47/67 49/48/68 48/46/66
f 29/47/67 30/49/69 50/50/70 49/48/68
f 30/49/69 31/51/71 51/52/72 50/50/70
f 31/51/71 32/53/73 52/54/74 51/52/72
f 32/53/73 33/55/75 53/56/76 52/54/74
f 33/55/75 34/57/77 54/58/78 53/56/76
f 34/57/77 35/59/79 55/60/80 54/58/78
f 35/59/79 36/61/81 56/62/82 55/60/80
f 36/61/81 37/63/83 57/64/84 56/62/82
f 37/63/83 38/65/85 58/66/86 57/64/84
f 38/65/85 39/67/87 59/68/88 58/66/86
f 39/67/87 40/69/89 60/70/90 59/68/88
f 40/69/89 21/71/51 41/72/54 60/70/90
s 7
f 22/73/91 21/74/92 61/75/93
f 23/76/94 22/73/91 61/75/93
f 24/77/95 23/76/94 61/75/93
f 25/78/96 24/77/95 61/75/93
f 26/79/97 25/78/96 61/75/93
f 27/80/98 26/79/97 61/75/93
f 28/81/99 27/80/98 61/75/93
f 29/82/100 28/81/99 61/75/93
f 30/83/101 29/82/100 61/75/93
f 31/84/102 30/83/101 61/75/93
f 32/85/103 31/84/102 61/75/93
f 33/86/104 32/85/103 61/75/93
f 34/87/105 33/86/104 61/75/93
f 35/88/106 34/87/105 61/75/93
f 36/89/107 35/88/106 61/75/93
f 37/90/108 36/89/107 61/75/93
f 38/91/109 37/90/108 61/75/93
f 39/92/110 38/91/109 61/75/93
f 40/93/111 39/92/110 61/75/93
f 21/74/92 40/93/111 61/75/93
s 8
f 41/94/112 42/95/113 62/96/114
f 42/95/113 43/97/115 62/96/114
f 43/97/115 44/98/116 62/96/114
f 44/98/116 45/99/117 62/96/114
f 45/99/117 46/100/118 62/96/114
f 46/100/118 47/101/119 62/96/114
f 47/101/119 48/102/120 62/96/114
f 48/102/120 49/103/121 62/96/114
f 49/103/121 50/104/122 62/96/114
f 50/104/122 51/105/123 62/96/114
f 51/105/123 52/106/124 62/96/114
f 52/106/124 53/107/125 62/96/114
f 53/107/125 54/108/126 62/96/114
f 54/108/126 55/109/127 62/96/114
f 55/109/127 56/110/128 62/96/114
f 56/110/128 57/111/129 62/96/114
f 57/111/129 58/112/130 62/96/114
f 58/112/130 59/113/131 62/96/114
f 59/113/131 60/114/132 62/96/114
f 60/114/132 41/94/112 62/96/114
