# This file uses centimeters as units for non-parametric coordinates.

g default
v 6.230311 2.960928 -4.122891
v 6.230311 2.188587 -4.122891
v 8.005983 2.188587 -4.122891
v 8.005983 2.960928 -4.122891
v 6.230311 4.315330 -4.326511
v 8.084591 4.315330 -4.326511
v 8.084591 2.051504 -4.326511
v 6.230311 2.051504 -4.326511
v 6.230311 2.188587 -2.432046
v 8.005983 2.188587 -2.432046
v 6.230311 4.046615 -4.119020
v 6.230311 3.274274 -4.119020
v 8.005983 3.274274 -4.119020
v 8.005983 4.046615 -4.119020
v 6.230311 2.960928 -2.432046
v 8.005983 2.960928 -2.432046
v 6.230311 3.274274 -2.428175
v 8.005983 3.274274 -2.428175
v 6.230311 4.046615 -2.428175
v 8.005983 4.046615 -2.428175
v 6.230311 2.960928 -0.606910
v 6.230311 2.960928 -2.297755
v 8.005983 2.960928 -2.297755
v 8.005983 2.960928 -0.606910
v 6.230311 3.272590 -2.297755
v 6.230311 3.272590 -0.606910
v 8.005983 3.272590 -0.606910
v 8.005983 3.272590 -2.297755
v 8.084591 4.315330 -0.303453
v 8.084591 2.051504 -0.303453
v 6.230311 2.188587 -0.606910
v 8.005983 2.188587 -0.606910
v 8.005983 2.188587 -2.297755
v 6.230311 4.315330 -0.303453
v 6.230311 2.051504 -0.303453
v 6.230311 4.044931 -0.606910
v 8.005983 4.044931 -0.606910
v 8.005983 4.044931 -2.297755
v 6.230311 2.051504 -1.811006
v 6.230311 2.764278 -2.297755
v 6.230311 2.188587 -2.297755
v 6.230311 2.188587 -1.904619
v 6.230311 4.044931 -2.297755
v 6.230311 3.338176 -2.297755
v 6.230311 4.044931 -0.855319
v 6.230311 0.804828 -4.122891
v 6.230311 0.032487 -4.122891
v 8.005983 0.032487 -4.122891
v 8.005983 0.804828 -4.122891
v 6.230311 2.159230 -4.326511
v 8.084591 2.159230 -4.326511
v 8.084591 -0.104596 -4.326511
v 6.230311 -0.104596 -4.326511
v 6.230311 0.032487 -2.432046
v 8.005983 0.032487 -2.432046
v 6.230311 1.890515 -4.119020
v 6.230311 1.118173 -4.119020
v 8.005983 1.118173 -4.119020
v 8.005983 1.890515 -4.119020
v 6.230311 0.804828 -2.432046
v 8.005983 0.804828 -2.432046
v 6.230311 -0.104596 -0.303453
v 8.084591 -0.104596 -0.303453
v 6.230311 1.118173 -2.428175
v 8.005983 1.118173 -2.428175
v 6.230311 0.804828 -2.297755
v 6.230311 0.032487 -2.297755
v 8.005983 0.032487 -2.297755
v 8.005983 0.804828 -2.297755
v 6.230311 0.032487 -0.606910
v 8.005983 0.032487 -0.606910
v 6.230311 1.890515 -2.428175
v 8.005983 1.890515 -2.428175
v 6.230311 1.888831 -2.297755
v 6.230311 1.116489 -2.297755
v 8.005983 1.116489 -2.297755
v 8.005983 1.888831 -2.297755
v 6.230311 0.804828 -0.606910
v 8.005983 0.804828 -0.606910
v 6.230311 1.116489 -0.606910
v 8.005983 1.116489 -0.606910
v 8.084591 2.159230 -0.303453
v 6.230311 2.159230 -0.303453
v 6.230311 1.888831 -0.606910
v 8.005983 1.888831 -0.606910
vt 0.375889 0.500000
vt 0.375889 0.750000
vt 0.625000 0.750000
vt 0.625000 0.500000
vt 0.375000 0.500000
vt 0.625000 0.500000
vt 0.625000 0.626572
vt 0.375000 0.626572
vt 0.375889 1.000000
vt 0.625000 1.000000
vt 0.375889 0.500000
vt 0.375889 0.750000
vt 0.625000 0.750000
vt 0.625000 0.500000
vt 0.375889 0.250000
vt 0.625000 0.250000
vt 0.375889 1.000000
vt 0.625000 1.000000
vt 0.375889 0.000000
vt 0.625000 0.000000
vt 0.875000 0.250000
vt 0.875000 0.000000
vt 0.375889 0.250000
vt 0.625000 0.250000
vt 0.375889 0.000000
vt 0.625000 0.000000
vt 0.875000 0.250000
vt 0.875000 0.000000
vt 0.375889 0.250000
vt 0.375889 0.500000
vt 0.625000 0.500000
vt 0.625000 0.250000
vt 0.375889 0.750000
vt 0.375889 1.000000
vt 0.625000 1.000000
vt 0.625000 0.750000
vt 0.875000 0.123428
vt 0.875000 0.250000
vt 0.625000 0.250000
vt 0.625000 0.123428
vt 0.375889 0.000000
vt 0.625000 0.000000
vt 0.875000 0.250000
vt 0.875000 0.000000
vt 0.375000 0.250000
vt 0.375000 0.123428
vt 0.375889 0.000000
vt 0.375889 0.250000
vt 0.625000 0.250000
vt 0.625000 0.000000
vt 0.875000 0.250000
vt 0.875000 0.000000
vt 0.586895 0.475394
vt 0.586895 0.289238
vt 0.465009 0.289238
vt 0.465009 0.358996
vt 0.465009 0.475394
vt 0.375889 0.563654
vt 0.375889 0.750000
vt 0.625000 0.750000
vt 0.375889 0.808127
vt 0.375889 1.000000
vt 0.625000 1.000000
vt 0.375889 0.500000
vt 0.375889 0.728770
vt 0.625000 0.500000
vt 0.375889 0.286728
vt 0.281318 0.123428
vt 0.275501 0.131092
vt 0.251070 0.131092
vt 0.251071 0.163280
vt 0.242725 0.174275
vt 0.242725 0.131092
vt 0.137653 0.131092
vt 0.125000 0.250000
vt 0.125000 0.123428
vt 0.137894 0.191794
vt 0.137894 0.234976
vt 0.242966 0.234976
vt 0.242966 0.191794
vt 0.251071 0.195367
vt 0.251070 0.234882
vt 0.340706 0.234882
vt 0.356143 0.234882
vt 0.356143 0.191700
vt 0.251071 0.191700
vt 0.137653 0.174275
vt 0.251071 0.174275
vt 0.356143 0.174275
vt 0.356143 0.131092
vt 0.375889 0.500000
vt 0.375889 0.750000
vt 0.625000 0.750000
vt 0.625000 0.500000
vt 0.375000 0.500000
vt 0.625000 0.500000
vt 0.625000 0.626572
vt 0.375000 0.626572
vt 0.375889 1.000000
vt 0.625000 1.000000
vt 0.375889 0.500000
vt 0.375889 0.750000
vt 0.625000 0.750000
vt 0.625000 0.500000
vt 0.375889 0.250000
vt 0.625000 0.250000
vt 0.465009 0.289238
vt 0.465009 0.475394
vt 0.586895 0.475394
vt 0.586895 0.289238
vt 0.375889 1.000000
vt 0.625000 1.000000
vt 0.375889 0.000000
vt 0.625000 0.000000
vt 0.875000 0.250000
vt 0.875000 0.000000
vt 0.375889 0.500000
vt 0.375889 0.750000
vt 0.625000 0.750000
vt 0.625000 0.500000
vt 0.375889 1.000000
vt 0.625000 1.000000
vt 0.375889 0.250000
vt 0.625000 0.250000
vt 0.375889 0.000000
vt 0.625000 0.000000
vt 0.875000 0.250000
vt 0.875000 0.000000
vt 0.375889 0.500000
vt 0.375889 0.750000
vt 0.625000 0.750000
vt 0.625000 0.500000
vt 0.375889 0.250000
vt 0.625000 0.250000
vt 0.375889 1.000000
vt 0.625000 1.000000
vt 0.875000 0.123428
vt 0.875000 0.250000
vt 0.625000 0.250000
vt 0.625000 0.123428
vt 0.375889 0.000000
vt 0.625000 0.000000
vt 0.875000 0.250000
vt 0.875000 0.000000
vt 0.375000 0.250000
vt 0.375889 0.250000
vt 0.625000 0.250000
vt 0.375000 0.123428
vt 0.375889 0.000000
vt 0.625000 0.000000
vt 0.875000 0.250000
vt 0.875000 0.000000
vt 0.125000 0.250000
vt 0.125000 0.123428
vt 0.356143 0.191700
vt 0.356143 0.174275
vt 0.356143 0.131092
vt 0.251070 0.131092
vt 0.242725 0.131092
vt 0.137653 0.131092
vt 0.137653 0.174275
vt 0.242725 0.174275
vt 0.242966 0.191794
vt 0.137894 0.191794
vt 0.137894 0.234976
vt 0.242966 0.234976
vt 0.251070 0.191700
vt 0.251071 0.234882
vt 0.356143 0.234882
vt 0.251070 0.174275
vn 0.000000 0.000000 1.000000
vn 0.000000 0.000000 1.000000
vn 0.000000 0.000000 1.000000
vn 0.000000 0.000000 1.000000
vn 0.000000 0.000000 -1.000000
vn 0.000000 0.000000 -1.000000
vn 0.000000 0.000000 -1.000000
vn 0.000000 0.000000 -1.000000
vn 0.000000 1.000000 0.000000
vn 0.000000 1.000000 0.000000
vn 0.000000 1.000000 0.000000
vn 0.000000 1.000000 0.000000
vn 0.000000 0.000000 1.000000
vn 0.000000 0.000000 1.000000
vn 0.000000 0.000000 1.000000
vn 0.000000 0.000000 1.000000
vn 0.000000 -1.000000 0.000000
vn 0.000000 -1.000000 0.000000
vn 0.000000 -1.000000 0.000000
vn 0.000000 -1.000000 0.000000
vn 0.000000 1.000000 0.000000
vn 0.000000 1.000000 0.000000
vn 0.000000 1.000000 0.000000
vn 0.000000 1.000000 0.000000
vn 0.000000 0.000000 -1.000000
vn 0.000000 0.000000 -1.000000
vn 0.000000 0.000000 -1.000000
vn 0.000000 0.000000 -1.000000
vn -1.000000 0.000000 0.000000
vn -1.000000 0.000000 0.000000
vn -1.000000 0.000000 0.000000
vn -1.000000 0.000000 0.000000
vn 0.000000 -1.000000 0.000000
vn 0.000000 -1.000000 0.000000
vn 0.000000 -1.000000 0.000000
vn 0.000000 -1.000000 0.000000
vn 0.000000 0.000000 -1.000000
vn 0.000000 0.000000 -1.000000
vn 0.000000 0.000000 -1.000000
vn 0.000000 0.000000 -1.000000
vn -1.000000 0.000000 0.000000
vn -1.000000 0.000000 0.000000
vn -1.000000 0.000000 0.000000
vn -1.000000 0.000000 0.000000
vn 0.000000 -1.000000 0.000000
vn 0.000000 -1.000000 0.000000
vn 0.000000 -1.000000 0.000000
vn 0.000000 -1.000000 0.000000
vn 0.000000 1.000000 0.000000
vn 0.000000 1.000000 0.000000
vn 0.000000 1.000000 0.000000
vn 0.000000 1.000000 0.000000
vn 1.000000 0.000000 0.000000
vn 1.000000 0.000000 0.000000
vn 1.000000 0.000000 0.000000
vn 1.000000 0.000000 0.000000
vn 0.000000 0.000000 -1.000000
vn 0.000000 0.000000 -1.000000
vn 0.000000 0.000000 -1.000000
vn 0.000000 0.000000 -1.000000
vn -1.000000 0.000000 0.000000
vn -1.000000 0.000000 0.000000
vn -1.000000 0.000000 0.000000
vn -1.000000 0.000000 0.000000
vn 0.000000 1.000000 0.000000
vn 0.000000 1.000000 0.000000
vn 0.000000 1.000000 0.000000
vn 0.000000 1.000000 0.000000
vn 0.000000 0.000000 1.000000
vn 0.000000 0.000000 1.000000
vn 0.000000 0.000000 1.000000
vn 0.000000 0.000000 1.000000
vn 0.000000 0.000000 -1.000000
vn 0.000000 0.000000 -1.000000
vn 0.000000 0.000000 -1.000000
vn 0.000000 0.000000 -1.000000
vn -1.000000 0.000000 0.000000
vn -1.000000 0.000000 0.000000
vn -1.000000 0.000000 0.000000
vn -1.000000 0.000000 0.000000
vn 0.000000 -1.000000 0.000000
vn 0.000000 -1.000000 0.000000
vn 0.000000 -1.000000 0.000000
vn 0.000000 -1.000000 0.000000
vn 0.000000 -1.000000 0.000000
vn 0.000000 0.000000 1.000000
vn 0.000000 0.000000 1.000000
vn 0.000000 0.000000 1.000000
vn 0.000000 0.000000 1.000000
vn 0.000000 0.000000 1.000000
vn 0.000000 1.000000 0.000000
vn 0.000000 1.000000 0.000000
vn 0.000000 1.000000 0.000000
vn 0.000000 1.000000 0.000000
vn 0.000000 1.000000 0.000000
vn 0.000000 0.000000 1.000000
vn 0.000000 0.000000 1.000000
vn 0.000000 0.000000 1.000000
vn 0.000000 0.000000 1.000000
vn 0.000000 0.000000 1.000000
vn 0.000000 -1.000000 0.000000
vn 0.000000 -1.000000 0.000000
vn 0.000000 -1.000000 0.000000
vn 0.000000 -1.000000 0.000000
vn 0.000000 -1.000000 0.000000
vn -1.000000 0.000000 0.000000
vn -1.000000 0.000000 0.000000
vn -1.000000 0.000000 0.000000
vn -1.000000 0.000000 0.000000
vn -1.000000 0.000000 0.000000
vn -1.000000 0.000000 0.000000
vn -1.000000 0.000000 0.000000
vn -1.000000 0.000000 0.000000
vn -1.000000 0.000000 0.000000
vn -1.000000 0.000000 0.000000
vn -1.000000 0.000000 0.000000
vn -1.000000 0.000000 0.000000
vn -1.000000 0.000000 0.000000
vn -1.000000 0.000000 0.000000
vn -1.000000 0.000000 0.000000
vn -1.000000 0.000000 0.000000
vn -1.000000 0.000000 0.000000
vn -1.000000 0.000000 0.000000
vn -1.000000 0.000000 0.000000
vn -1.000000 0.000000 0.000000
vn -1.000000 0.000000 0.000000
vn -1.000000 0.000000 0.000000
vn -1.000000 0.000000 0.000000
vn -1.000000 0.000000 0.000000
vn -1.000000 0.000000 0.000000
vn 0.000000 0.000000 1.000000
vn 0.000000 0.000000 1.000000
vn 0.000000 0.000000 1.000000
vn 0.000000 0.000000 1.000000
vn 0.000000 0.000000 -1.000000
vn 0.000000 0.000000 -1.000000
vn 0.000000 0.000000 -1.000000
vn 0.000000 0.000000 -1.000000
vn 0.000000 1.000000 0.000000
vn 0.000000 1.000000 0.000000
vn 0.000000 1.000000 0.000000
vn 0.000000 1.000000 0.000000
vn 0.000000 0.000000 1.000000
vn 0.000000 0.000000 1.000000
vn 0.000000 0.000000 1.000000
vn 0.000000 0.000000 1.000000
vn 0.000000 -1.000000 0.000000
vn 0.000000 -1.000000 0.000000
vn 0.000000 -1.000000 0.000000
vn 0.000000 -1.000000 0.000000
vn 0.000000 -1.000000 0.000000
vn 0.000000 -1.000000 0.000000
vn 0.000000 -1.000000 0.000000
vn 0.000000 -1.000000 0.000000
vn 0.000000 1.000000 0.000000
vn 0.000000 1.000000 0.000000
vn 0.000000 1.000000 0.000000
vn 0.000000 1.000000 0.000000
vn 0.000000 0.000000 -1.000000
vn 0.000000 0.000000 -1.000000
vn 0.000000 0.000000 -1.000000
vn 0.000000 0.000000 -1.000000
vn -1.000000 0.000000 0.000000
vn -1.000000 0.000000 0.000000
vn -1.000000 0.000000 0.000000
vn -1.000000 0.000000 0.000000
vn 0.000000 0.000000 1.000000
vn 0.000000 0.000000 1.000000
vn 0.000000 0.000000 1.000000
vn 0.000000 0.000000 1.000000
vn 0.000000 1.000000 0.000000
vn 0.000000 1.000000 0.000000
vn 0.000000 1.000000 0.000000
vn 0.000000 1.000000 0.000000
vn 0.000000 -1.000000 0.000000
vn 0.000000 -1.000000 0.000000
vn 0.000000 -1.000000 0.000000
vn 0.000000 -1.000000 0.000000
vn 0.000000 0.000000 -1.000000
vn 0.000000 0.000000 -1.000000
vn 0.000000 0.000000 -1.000000
vn 0.000000 0.000000 -1.000000
vn -1.000000 0.000000 0.000000
vn -1.000000 0.000000 0.000000
vn -1.000000 0.000000 0.000000
vn -1.000000 0.000000 0.000000
vn 0.000000 0.000000 1.000000
vn 0.000000 0.000000 1.000000
vn 0.000000 0.000000 1.000000
vn 0.000000 0.000000 1.000000
vn 0.000000 -1.000000 0.000000
vn 0.000000 -1.000000 0.000000
vn 0.000000 -1.000000 0.000000
vn 0.000000 -1.000000 0.000000
vn 0.000000 1.000000 0.000000
vn 0.000000 1.000000 0.000000
vn 0.000000 1.000000 0.000000
vn 0.000000 1.000000 0.000000
vn 1.000000 0.000000 0.000000
vn 1.000000 0.000000 0.000000
vn 1.000000 0.000000 0.000000
vn 1.000000 0.000000 0.000000
vn 0.000000 0.000000 -1.000000
vn 0.000000 0.000000 -1.000000
vn 0.000000 0.000000 -1.000000
vn 0.000000 0.000000 -1.000000
vn -1.000000 0.000000 0.000000
vn -1.000000 0.000000 0.000000
vn -1.000000 0.000000 0.000000
vn -1.000000 0.000000 0.000000
vn 0.000000 1.000000 0.000000
vn 0.000000 1.000000 0.000000
vn 0.000000 1.000000 0.000000
vn 0.000000 1.000000 0.000000
vn 0.000000 -1.000000 0.000000
vn 0.000000 -1.000000 0.000000
vn 0.000000 -1.000000 0.000000
vn 0.000000 -1.000000 0.000000
vn 0.000000 0.000000 1.000000
vn 0.000000 0.000000 1.000000
vn 0.000000 0.000000 1.000000
vn 0.000000 0.000000 1.000000
vn 0.000000 0.000000 -1.000000
vn 0.000000 0.000000 -1.000000
vn 0.000000 0.000000 -1.000000
vn 0.000000 0.000000 -1.000000
vn -1.000000 0.000000 0.000000
vn -1.000000 0.000000 0.000000
vn -1.000000 0.000000 0.000000
vn -1.000000 0.000000 0.000000
vn -1.000000 0.000000 0.000000
vn -1.000000 0.000000 0.000000
vn -1.000000 0.000000 0.000000
vn -1.000000 0.000000 0.000000
vn -1.000000 0.000000 0.000000
vn -1.000000 0.000000 0.000000
vn -1.000000 0.000000 0.000000
vn -1.000000 0.000000 0.000000
vn -1.000000 0.000000 0.000000
vn -1.000000 0.000000 0.000000
vn -1.000000 0.000000 0.000000
vn -1.000000 0.000000 0.000000
vn -1.000000 0.000000 0.000000
vn -1.000000 0.000000 0.000000
vn -1.000000 0.000000 0.000000
vn -1.000000 0.000000 0.000000
vn -1.000000 0.000000 0.000000
vn -1.000000 0.000000 0.000000
vn -1.000000 0.000000 0.000000
vn -1.000000 0.000000 0.000000
s off
g pasted__polySurface2
f 1/1/1 2/2/2 3/3/3 4/4/4
f 5/5/5 6/6/6 7/7/7 8/8/8
f 2/2/9 9/9/10 10/10/11 3/3/12
f 11/11/13 12/12/14 13/13/15 14/14/16
f 15/15/17 1/1/18 4/4/19 16/16/20
f 12/12/21 17/17/22 18/18/23 13/13/24
f 9/19/25 15/15/26 16/16/27 10/20/28
f 10/20/29 16/16/30 4/21/31 3/22/32
f 19/23/33 11/11/34 14/14/35 20/24/36
f 17/25/37 19/23/38 20/24/39 18/26/40
f 18/26/41 20/24/42 14/27/43 13/28/44
f 21/29/45 22/30/46 23/31/47 24/32/48
f 25/33/49 26/34/50 27/35/51 28/36/52
f 7/37/53 6/38/54 29/39/55 30/40/56
f 31/41/57 21/29/58 24/32/59 32/42/60
f 32/42/61 24/32/62 23/43/63 33/44/64
f 34/45/65 29/39/66 6/6/67 5/5/68
f 30/40/69 29/39/70 34/45/71 35/46/72
f 26/47/73 36/48/74 37/49/75 27/50/76
f 27/50/77 37/49/78 38/51/79 28/52/80
f 7/53/81 30/54/82 35/55/83 39/56/84 8/57/85
f 22/30/86 40/58/87 41/59/88 33/60/89 23/31/90
f 41/59/91 42/61/92 31/62/93 32/63/94 33/60/95
f 43/64/96 44/65/97 25/33/98 28/36/99 38/66/100
f 36/48/101 45/67/102 43/64/103 38/66/104 37/49/105
f 34/45/106 5/75/107 8/76/108 39/68/109 35/46/110 12/77/111 11/78/112 19/79/113 17/80/114 44/81/115 43/82/116 45/83/117 36/84/118 26/85/119 25/86/120 42/69/121 41/70/122 40/71/123 22/88/124 21/89/125 31/90/126 15/72/127 9/73/128 2/74/129 1/87/130
f 46/91/131 47/92/132 48/93/133 49/94/134
f 50/95/135 51/96/136 52/97/137 53/98/138
f 47/92/139 54/99/140 55/100/141 48/93/142
f 56/101/143 57/102/144 58/103/145 59/104/146
f 60/105/147 46/91/148 49/94/149 61/106/150
f 62/107/151 53/108/152 52/109/153 63/110/154
f 57/102/155 64/111/156 65/112/157 58/103/158
f 54/113/159 60/105/160 61/106/161 55/114/162
f 55/114/163 61/106/164 49/115/165 48/116/166
f 66/117/167 67/118/168 68/119/169 69/120/170
f 67/118/171 70/121/172 71/122/173 68/119/174
f 72/123/175 56/101/176 59/104/177 73/124/178
f 64/125/179 72/123/180 73/124/181 65/126/182
f 65/126/183 73/124/184 59/127/185 58/128/186
f 74/129/187 75/130/188 76/131/189 77/132/190
f 78/133/191 66/117/192 69/120/193 79/134/194
f 75/130/195 80/135/196 81/136/197 76/131/198
f 52/137/199 51/138/200 82/139/201 63/140/202
f 70/141/203 78/133/204 79/134/205 71/142/206
f 71/142/207 79/134/208 69/143/209 68/144/210
f 83/145/211 82/139/212 51/96/213 50/95/214
f 84/146/215 74/129/216 77/132/217 85/147/218
f 63/140/219 82/139/220 83/145/221 62/148/222
f 80/149/223 84/146/224 85/147/225 81/150/226
f 81/150/227 85/147/228 77/151/229 76/152/230
s 1
f 83/145/231 50/153/232 53/154/233 62/148/234 80/155/235 78/156/236 70/157/237 67/158/238 54/159/239 47/160/240 46/161/241 60/162/242 54/159/239 64/163/243 57/164/244 56/165/245 72/166/246 64/163/243 75/167/247 74/168/248 84/169/249
f 80/155/235 75/167/247 64/163/243 54/159/239 67/158/238 66/170/250 78/156/236
